<svg width="500" height="500" viewBox="0 0 500 500" fill="none" xmlns="http://www.w3.org/2000/svg">
<path d="M141.976 140.408L111.017 109.449L111.148 333.232L111.518 343.691C111.671 348.612 112.585 354.165 114.108 359.921L359.415 446.421L420.735 419.253L420.757 419.178L141.976 140.408Z" fill="#7658F5" fill-opacity="0.9"/>
<path d="M114.108 359.921L114.123 359.936C114.108 359.835 114.055 359.722 114.055 359.618C114.055 359.722 114.07 359.82 114.108 359.921V359.921ZM420.735 419.253L359.415 446.421L114.123 359.936C118.808 377.913 129.181 398.121 140.344 409.172L220.397 488.768L398.394 489L420.757 419.178L420.735 419.253V419.253Z" fill="#4E2BC7" fill-opacity="0.8"/>
<path d="M15.677 253.459C7.75101 261.92 11.6878 279.374 24.4487 292.232L79.4925 347.733L114.108 359.921C112.585 354.165 111.672 348.612 111.518 343.691L111.148 333.232L111.017 109.449L15.677 253.459V253.459Z" fill="#7658F5"/>
<path d="M361.429 112.323C355.673 110.852 350.154 109.943 345.15 109.786L334.096 109.404L111.017 109.434L420.787 419.178H420.814L448.019 357.799L361.429 112.323Z" fill="#7658F5"/>
<path d="M361.148 112.263C361.268 112.289 361.361 112.323 361.44 112.334L361.429 112.323C361.361 112.289 361.268 112.289 361.148 112.263ZM410.635 138.604C399.393 127.269 379.451 116.967 361.44 112.334L448.019 357.799L420.813 419.178H420.787L487.271 397.945L487.413 215.671L410.635 138.604V138.604Z" fill="#7658F5" fill-opacity="0.9"/>
<path d="M349.3 77.9169L293.815 22.8394C280.983 10.1272 263.522 6.17174 255.083 14.0752L111.017 109.434L334.096 109.404L345.15 109.785C350.154 109.943 355.673 110.852 361.429 112.323L349.3 77.9169V77.9169Z" fill="#7658F5" fill-opacity="0.9"/>
</svg>
