<svg width="214" height="348" viewBox="0 0 214 348" fill="none" xmlns="http://www.w3.org/2000/svg">
<g opacity="0.5">
<path d="M129.048 171.541C76.2157 194.326 43.1722 216.49 21.2974 236.933C-0.583527 257.382 -11.2686 276.092 -19.4029 291.926C-20.3708 293.81 -21.3019 295.651 -22.2105 297.448C-28.9507 310.778 -34.4598 321.673 -44.6642 329.537C-56.2232 338.444 -73.8805 343.5 -106.377 343.5C-171.348 343.5 -230.148 324.276 -272.693 293.219C-315.238 262.161 -341.5 219.298 -341.5 172C-341.5 124.702 -315.238 81.8388 -272.693 50.7815C-230.153 19.728 -171.361 0.504387 -106.399 0.500001C-20.6834 8.14301 46.6291 18.5065 96.9451 30.7993C147.285 43.0981 180.546 57.3129 198.218 72.6143C207.047 80.258 211.945 88.1382 213.184 96.1502C214.421 104.155 212.019 112.381 206.064 120.751C194.133 137.521 168.036 154.726 129.048 171.541Z" stroke="#0064FB"/>
<path d="M65.1635 184.041C14.8954 205.701 -16.5461 226.77 -37.3611 246.206C-58.1824 265.647 -68.3501 283.435 -76.0901 298.488C-77.0111 300.279 -77.897 302.029 -78.7615 303.737C-85.1748 316.409 -90.4137 326.76 -100.118 334.232C-111.109 342.694 -127.902 347.5 -158.819 347.5C-220.631 347.5 -276.57 329.227 -317.044 299.708C-357.519 270.189 -382.5 229.451 -382.5 184.5C-382.5 139.549 -357.519 98.8112 -317.044 69.292C-276.575 39.7767 -220.644 21.5044 -158.842 21.5C-77.2891 28.7652 -13.2471 38.6164 34.6237 50.3013C82.5189 61.9921 114.159 75.5034 130.969 90.0446C139.366 97.3082 144.022 104.794 145.199 112.402C146.376 120.004 144.093 127.817 138.43 135.769C127.082 151.705 102.258 168.057 65.1635 184.041Z" stroke="#0064FB"/>
</g>
</svg>
