<svg width="637" height="537" viewBox="0 0 637 537" fill="none" xmlns="http://www.w3.org/2000/svg">
<path d="M394.38 479.72C526.851 479.72 634.24 372.331 634.24 239.86C634.24 107.389 526.851 0 394.38 0C261.909 0 154.52 107.389 154.52 239.86C154.52 372.331 261.909 479.72 394.38 479.72Z" fill="url(#paint0_linear_120_863)"/>
<path d="M318.5 536.39C494.403 536.39 637 528.671 637 519.15C637 509.629 494.403 501.91 318.5 501.91C142.597 501.91 0 509.629 0 519.15C0 528.671 142.597 536.39 318.5 536.39Z" fill="#292F4C"/>
<g opacity="0.1">
<path opacity="0.1" d="M485.27 87.42V143.5L417.16 147.67V99.93L485.27 87.42Z" fill="white"/>
<path opacity="0.1" d="M595.55 67.17V136.74L495.92 142.85V85.47L595.55 67.17Z" fill="white"/>
<path opacity="0.1" d="M595.55 147.4V217.05L495.92 210.94V153.51L595.55 147.4Z" fill="white"/>
<path opacity="0.1" d="M485.27 154.16V210.29L417.16 206.13V158.33L485.27 154.16Z" fill="white"/>
<path opacity="0.1" d="M485.27 220.95V277.02L417.16 264.51V216.79L485.27 220.95Z" fill="white"/>
<path opacity="0.1" d="M595.55 227.71V297.29L495.92 278.97V221.6L595.55 227.71Z" fill="white"/>
</g>
<path d="M579.55 326.45C583.43 327.03 587.42 331.04 587.02 338.88C586.68 345.68 584.02 352.37 589.21 356.66C594.4 360.95 598.46 364.5 597.05 371.05C595.64 377.6 586.27 382.61 586.71 388.36C587.15 394.11 602.35 397.17 600.95 410C599.55 422.83 585.02 425.06 585.38 430.59C585.74 436.12 597.83 445 595.56 457.34C593.29 469.68 572.93 476.46 554.56 473.03C536.19 469.6 526.12 462.35 524.68 450.19C523.56 440.72 531.68 434.82 539.11 432.02C546.54 429.22 550.11 428.84 551.17 422.9C552.23 416.96 538.49 407.35 542.17 396.71C545.85 386.07 560.3 388.77 563.85 381.2C567.4 373.63 548.3 365.2 552.03 354.41C555.25 345.05 562.93 348.77 568.61 339.8C574.29 330.83 573.59 325.57 579.55 326.45Z" fill="#C8DBF3"/>
<path d="M578.77 341.13C577.658 344.05 576.896 347.091 576.5 350.19C576.079 353.288 575.961 356.419 576.15 359.54C576.35 362.64 576.87 365.76 577.21 368.9C577.55 372.04 577.87 375.2 577.95 378.38C578.053 381.569 577.875 384.762 577.42 387.92C576.937 391.093 576.123 394.207 574.99 397.21C573.84 400.21 572.42 403.04 570.99 405.87C569.56 408.7 568.11 411.5 566.68 414.3C565.25 417.1 563.82 419.9 562.49 422.73C561.16 425.56 559.89 428.42 558.81 431.33C557.686 434.191 556.858 437.16 556.34 440.19C556.128 441.694 556.015 443.211 556 444.73C556 446.29 556 447.86 556 449.42C556 455.7 556.17 462.01 556.17 468.33C556.17 471.49 556.17 474.66 556 477.85C555.92 479.45 555.82 481.05 555.63 482.67C555.54 483.48 555.42 484.31 555.26 485.14C555.092 486.041 554.83 486.923 554.48 487.77C554.267 488.111 553.938 488.363 553.554 488.479C553.17 488.596 552.757 488.57 552.39 488.405C552.024 488.24 551.73 487.948 551.563 487.583C551.395 487.218 551.366 486.805 551.48 486.42C551.733 485.81 551.927 485.177 552.06 484.53C552.2 483.82 552.33 483.09 552.43 482.33C552.63 480.83 552.76 479.33 552.86 477.74C553.06 474.64 553.14 471.5 553.2 468.37C553.31 462.09 553.26 455.79 553.36 449.46C553.36 447.88 553.43 446.3 553.49 444.71V443.52C553.49 443.12 553.49 442.72 553.58 442.3L553.72 441.07C553.75 440.656 553.81 440.245 553.9 439.84C554.496 436.663 555.421 433.556 556.66 430.57C557.82 427.57 559.15 424.7 560.57 421.86C561.99 419.02 563.44 416.22 564.93 413.44C566.42 410.66 567.93 407.9 569.39 405.12C570.85 402.34 572.29 399.54 573.44 396.68C574.59 393.8 575.431 390.807 575.95 387.75C576.452 384.68 576.679 381.571 576.63 378.46C576.63 375.33 576.37 372.21 576.07 369.08C575.77 365.95 575.32 362.84 575.17 359.65C575.036 356.47 575.213 353.285 575.7 350.14C576.164 346.989 577 343.904 578.19 340.95C578.227 340.885 578.286 340.835 578.357 340.81C578.428 340.785 578.506 340.787 578.576 340.815C578.645 340.843 578.703 340.896 578.736 340.963C578.77 341.03 578.779 341.107 578.76 341.18L578.77 341.13Z" fill="#8FAFDA"/>
<path d="M586.5 369.7C586.5 369.7 586.03 377.77 577.25 376.96" stroke="#8FAFDA" stroke-width="1.16" stroke-linecap="round" stroke-linejoin="round"/>
<path d="M569.18 362.55C569.18 362.55 570.84 369.24 576.85 370.97" stroke="#8FAFDA" stroke-width="1.16" stroke-linecap="round" stroke-linejoin="round"/>
<path d="M551.38 400.49C551.38 400.49 555.93 415.86 565.72 414.03" stroke="#8FAFDA" stroke-width="1.16" stroke-linecap="round" stroke-linejoin="round"/>
<path d="M581.64 415.86C581.64 415.86 573.32 431.37 559.93 425.68" stroke="#8FAFDA" stroke-width="1.16" stroke-linecap="round" stroke-linejoin="round"/>
<path d="M540.68 445.19C541.794 448.614 543.617 451.766 546.029 454.439C548.441 457.113 551.388 459.25 554.68 460.71" stroke="#8FAFDA" stroke-width="1.16" stroke-linecap="round" stroke-linejoin="round"/>
<path d="M574.26 444.79C574.26 444.79 568.6 458.31 554.64 451.79" stroke="#8FAFDA" stroke-width="1.16" stroke-linecap="round" stroke-linejoin="round"/>
<path d="M509.5 330.36C513.25 329.23 518.57 331.17 521.5 338.44C524.08 344.74 524.5 351.93 531.03 353.6C537.56 355.27 542.73 356.78 544.24 363.3C545.75 369.82 539.39 378.35 542.24 383.37C545.09 388.39 560.13 384.7 564.32 396.91C568.51 409.12 556.32 417.31 558.96 422.16C561.6 427.01 576.35 429.92 579.53 442.06C582.71 454.2 567.17 468.98 549.1 473.67C531.03 478.36 518.8 476.08 512.31 465.67C507.31 457.58 512.14 448.78 517.66 443.1C523.18 437.42 526.23 435.57 524.71 429.72C523.19 423.87 506.62 421.02 505.45 409.82C504.28 398.62 518.45 394.93 518.45 386.57C518.45 378.21 497.58 378.69 496.37 367.34C495.37 357.5 503.85 357.6 505.18 347.07C506.51 336.54 503.71 332.09 509.5 330.36Z" fill="url(#paint1_linear_120_863)"/>
<path d="M515 343.97C515.228 347.086 515.826 350.165 516.78 353.14C517.717 356.122 518.942 359.006 520.44 361.75C521.93 364.47 523.73 367.08 525.37 369.75C527.01 372.42 528.64 375.17 530.06 378.01C531.51 380.856 532.708 383.824 533.64 386.88C534.549 389.957 535.132 393.121 535.38 396.32C535.61 399.53 535.53 402.69 535.46 405.85C535.39 409.01 535.24 412.16 535.13 415.3C535.02 418.44 534.93 421.59 534.92 424.72C534.91 427.85 534.99 430.98 535.25 434.07C535.443 437.134 535.953 440.17 536.77 443.13C537.213 444.585 537.754 446.008 538.39 447.39C539.023 448.817 539.69 450.24 540.39 451.66C543.07 457.34 545.89 462.98 548.58 468.66C549.92 471.53 551.24 474.41 552.47 477.36C553.07 478.84 553.66 480.36 554.18 481.88C554.44 482.65 554.68 483.45 554.89 484.27C555.124 485.156 555.261 486.065 555.3 486.98C555.277 487.401 555.097 487.798 554.794 488.091C554.491 488.384 554.089 488.552 553.667 488.56C553.246 488.569 552.837 488.418 552.522 488.138C552.207 487.858 552.01 487.469 551.97 487.05V486.98C551.949 486.322 551.858 485.669 551.7 485.03C551.53 484.32 551.33 483.6 551.1 482.88C550.64 481.43 550.1 479.98 549.54 478.54C548.41 475.64 547.15 472.77 545.87 469.91C543.3 464.18 540.58 458.49 537.99 452.73C537.34 451.28 536.7 449.83 536.09 448.37L535.63 447.26C535.467 446.891 535.323 446.514 535.2 446.13L534.79 444.95C534.649 444.564 534.532 444.17 534.44 443.77C533.632 440.638 533.149 437.431 533 434.2C532.79 431.01 532.77 427.82 532.84 424.66C532.91 421.5 533.05 418.33 533.22 415.18C533.39 412.03 533.58 408.88 533.72 405.75C533.86 402.62 533.98 399.46 533.8 396.39C533.619 393.295 533.11 390.227 532.28 387.24C531.428 384.249 530.317 381.338 528.96 378.54C527.61 375.72 526.07 372.99 524.46 370.29C522.85 367.59 521.13 364.95 519.65 362.12C518.178 359.299 516.982 356.342 516.08 353.29C515.163 350.24 514.612 347.091 514.44 343.91C514.44 343.829 514.471 343.752 514.527 343.694C514.583 343.636 514.659 343.603 514.74 343.6C514.818 343.597 514.894 343.625 514.952 343.677C515.01 343.729 515.045 343.802 515.05 343.88L515 343.97Z" fill="#41B16D"/>
<path d="M534.14 366.55C534.14 366.55 537.14 374.06 528.85 377.05" stroke="#41B16D" stroke-width="1.16" stroke-linecap="round" stroke-linejoin="round"/>
<path d="M515.41 367.44C515.41 367.44 519.76 372.79 525.93 371.8" stroke="#41B16D" stroke-width="1.16" stroke-linecap="round" stroke-linejoin="round"/>
<path d="M515.41 409.35C515.41 409.35 526.05 421.35 534.14 415.52" stroke="#41B16D" stroke-width="1.16" stroke-linecap="round" stroke-linejoin="round"/>
<path d="M549.33 410.41C549.33 410.41 548.33 427.99 533.85 428.53" stroke="#41B16D" stroke-width="1.16" stroke-linecap="round" stroke-linejoin="round"/>
<path d="M524.72 454.39C527.181 457.016 530.166 459.095 533.482 460.492C536.799 461.89 540.372 462.574 543.97 462.5" stroke="#41B16D" stroke-width="1.16" stroke-linecap="round" stroke-linejoin="round"/>
<path d="M554.94 439.74C554.94 439.74 555.55 454.39 540.13 454.39" stroke="#41B16D" stroke-width="1.16" stroke-linecap="round" stroke-linejoin="round"/>
<path d="M616.31 355.86C619.5 357.27 621.97 361.65 619.78 368.28C617.88 374.03 614.02 379.13 617.46 384.03C620.9 388.93 623.53 392.94 620.78 398.22C618.03 403.5 608.78 405.59 607.84 410.62C606.9 415.65 619.15 421.86 614.93 432.52C610.71 443.18 597.72 441.67 596.73 446.52C595.74 451.37 604 461.8 599.13 471.85C594.26 481.9 575.23 482.9 560.31 475.63C545.39 468.36 538.44 459.75 540.08 448.95C541.36 440.57 549.73 437.44 556.74 436.78C563.75 436.12 566.88 436.65 569.23 431.78C571.58 426.91 562.03 415.46 567.71 407.21C573.39 398.96 585.12 404.69 589.95 399.04C594.78 393.39 580.41 381.66 586.14 373.29C591.14 366.03 596.82 371.03 603.81 364.68C610.8 358.33 611.41 353.7 616.31 355.86Z" fill="url(#paint2_linear_120_863)"/>
<path d="M612.17 368.26C610.528 370.498 609.155 372.921 608.08 375.48C606.994 378.037 606.157 380.692 605.58 383.41C605.01 386.11 604.72 388.91 604.28 391.68C603.84 394.45 603.35 397.23 602.67 399.98C602.007 402.74 601.104 405.437 599.97 408.04C598.807 410.644 597.372 413.117 595.69 415.42C594 417.73 592.11 419.81 590.24 421.91C588.37 424.01 586.45 426.05 584.56 428.11C582.67 430.17 580.79 432.24 578.98 434.35C577.17 436.46 575.41 438.62 573.8 440.86C572.161 443.043 570.75 445.389 569.59 447.86C569.047 449.101 568.589 450.377 568.22 451.68C567.82 453.01 567.45 454.35 567.08 455.68C565.61 461.07 564.25 466.5 562.77 471.93C562.02 474.64 561.25 477.35 560.37 480.05C559.93 481.4 559.46 482.75 558.92 484.05C558.65 484.73 558.35 485.4 558.02 486.05C557.662 486.784 557.226 487.478 556.72 488.12C556.463 488.397 556.11 488.566 555.733 488.591C555.356 488.617 554.984 488.497 554.692 488.256C554.401 488.016 554.212 487.673 554.166 487.298C554.119 486.923 554.217 486.545 554.44 486.24C554.801 485.778 555.116 485.283 555.38 484.76C555.68 484.18 555.96 483.58 556.22 482.96C556.75 481.72 557.22 480.43 557.67 479.12C558.58 476.51 559.39 473.85 560.18 471.12C561.75 465.77 563.18 460.36 564.78 454.96C565.167 453.627 565.577 452.277 566.01 450.91C566.433 449.524 566.947 448.168 567.55 446.85C568.814 444.268 570.339 441.822 572.1 439.55C573.81 437.28 575.63 435.11 577.51 433.01C579.39 430.91 581.31 428.86 583.24 426.83C585.17 424.8 587.12 422.78 589.02 420.74C590.92 418.7 592.83 416.65 594.49 414.47C596.152 412.271 597.58 409.905 598.75 407.41C599.899 404.891 600.829 402.278 601.53 399.6C602.24 396.92 602.78 394.18 603.25 391.43C603.72 388.68 604.09 385.91 604.71 383.13C605.35 380.383 606.254 377.703 607.41 375.13C608.553 372.538 610 370.091 611.72 367.84C611.764 367.783 611.828 367.746 611.9 367.736C611.971 367.727 612.043 367.746 612.1 367.79C612.157 367.834 612.194 367.898 612.204 367.97C612.213 368.041 612.194 368.113 612.15 368.17L612.17 368.26Z" fill="#D2DEF8"/>
<path d="M612.07 394.57C612.07 394.57 609.76 401.38 602.43 398.57" stroke="#D2DEF8" stroke-width="1.16" stroke-linecap="round" stroke-linejoin="round"/>
<path d="M598.9 384.35C598.9 384.35 598.75 390.48 603.49 393.35" stroke="#D2DEF8" stroke-width="1.16" stroke-linecap="round" stroke-linejoin="round"/>
<path d="M574.69 412.67C574.69 412.67 574.96 426.92 583.78 427.67" stroke="#D2DEF8" stroke-width="1.16" stroke-linecap="round" stroke-linejoin="round"/>
<path d="M597 432.99C597 432.99 586.2 444.32 576.07 436.29" stroke="#D2DEF8" stroke-width="1.16" stroke-linecap="round" stroke-linejoin="round"/>
<path d="M554.96 448.48C555.105 451.677 555.921 454.808 557.354 457.67C558.787 460.531 560.806 463.059 563.28 465.09" stroke="#D2DEF8" stroke-width="1.16" stroke-linecap="round" stroke-linejoin="round"/>
<path d="M583.84 456.05C583.84 456.05 575.84 466.3 565.38 457.39" stroke="#D2DEF8" stroke-width="1.16" stroke-linecap="round" stroke-linejoin="round"/>
<path d="M581.02 495.84L571.49 523.24H539.1L528.85 495.84H581.02Z" fill="url(#paint3_linear_120_863)"/>
<path d="M585.16 487.81V492.81C585.16 493.622 584.838 494.4 584.264 494.974C583.69 495.548 582.911 495.87 582.1 495.87H527.78C526.967 495.87 526.188 495.548 525.613 494.974C525.037 494.401 524.713 493.622 524.71 492.81V487.81C524.713 486.998 525.037 486.219 525.613 485.646C526.188 485.072 526.967 484.75 527.78 484.75H582.1C582.911 484.75 583.69 485.072 584.264 485.646C584.838 486.22 585.16 486.998 585.16 487.81Z" fill="url(#paint4_linear_120_863)"/>
<path d="M69.65 112.1H302.56C304.127 112.1 305.631 112.723 306.739 113.831C307.847 114.939 308.47 116.443 308.47 118.01V130.1H63.74V118.01C63.74 116.443 64.3627 114.939 65.471 113.831C66.5793 112.723 68.0826 112.1 69.65 112.1Z" fill="url(#paint5_linear_120_863)"/>
<path d="M63.74 130.1H308.5V260.19C308.5 261.757 307.877 263.261 306.769 264.369C305.661 265.477 304.157 266.1 302.59 266.1H69.65C68.0826 266.1 66.5793 265.477 65.471 264.369C64.3627 263.261 63.74 261.757 63.74 260.19V130.1Z" fill="url(#paint6_linear_120_863)"/>
<path d="M84.66 124.99C86.8084 124.99 88.55 123.248 88.55 121.1C88.55 118.952 86.8084 117.21 84.66 117.21C82.5116 117.21 80.77 118.952 80.77 121.1C80.77 123.248 82.5116 124.99 84.66 124.99Z" fill="#9FF957"/>
<path d="M100.85 124.99C102.998 124.99 104.74 123.248 104.74 121.1C104.74 118.952 102.998 117.21 100.85 117.21C98.7016 117.21 96.96 118.952 96.96 121.1C96.96 123.248 98.7016 124.99 100.85 124.99Z" fill="#FFD13C"/>
<path d="M117.05 124.99C119.198 124.99 120.94 123.248 120.94 121.1C120.94 118.952 119.198 117.21 117.05 117.21C114.902 117.21 113.16 118.952 113.16 121.1C113.16 123.248 114.902 124.99 117.05 124.99Z" fill="#FF7D72"/>
<path d="M80.78 152.98C82.3429 152.98 83.61 151.713 83.61 150.15C83.61 148.587 82.3429 147.32 80.78 147.32C79.217 147.32 77.95 148.587 77.95 150.15C77.95 151.713 79.217 152.98 80.78 152.98Z" fill="#FF7D72"/>
<path d="M80.78 167.07C82.3429 167.07 83.61 165.803 83.61 164.24C83.61 162.677 82.3429 161.41 80.78 161.41C79.217 161.41 77.95 162.677 77.95 164.24C77.95 165.803 79.217 167.07 80.78 167.07Z" fill="#FF7D72"/>
<path d="M80.78 181.15C82.3429 181.15 83.61 179.883 83.61 178.32C83.61 176.757 82.3429 175.49 80.78 175.49C79.217 175.49 77.95 176.757 77.95 178.32C77.95 179.883 79.217 181.15 80.78 181.15Z" fill="#FF7D72"/>
<path d="M80.78 195.24C82.3429 195.24 83.61 193.973 83.61 192.41C83.61 190.847 82.3429 189.58 80.78 189.58C79.217 189.58 77.95 190.847 77.95 192.41C77.95 193.973 79.217 195.24 80.78 195.24Z" fill="#FF7D72"/>
<path d="M80.78 209.33C82.3429 209.33 83.61 208.063 83.61 206.5C83.61 204.937 82.3429 203.67 80.78 203.67C79.217 203.67 77.95 204.937 77.95 206.5C77.95 208.063 79.217 209.33 80.78 209.33Z" fill="#FF7D72"/>
<path d="M80.78 223.42C82.3429 223.42 83.61 222.153 83.61 220.59C83.61 219.027 82.3429 217.76 80.78 217.76C79.217 217.76 77.95 219.027 77.95 220.59C77.95 222.153 79.217 223.42 80.78 223.42Z" fill="#FF7D72"/>
<path d="M80.78 237.51C82.3429 237.51 83.61 236.243 83.61 234.68C83.61 233.117 82.3429 231.85 80.78 231.85C79.217 231.85 77.95 233.117 77.95 234.68C77.95 236.243 79.217 237.51 80.78 237.51Z" fill="#FF7D72"/>
<path d="M80.78 251.59C82.3429 251.59 83.61 250.323 83.61 248.76C83.61 247.197 82.3429 245.93 80.78 245.93C79.217 245.93 77.95 247.197 77.95 248.76C77.95 250.323 79.217 251.59 80.78 251.59Z" fill="#FF7D72"/>
<path d="M284.49 147.32H96.97V152.98H284.49V147.32Z" fill="url(#paint7_linear_120_863)"/>
<path d="M269.72 161.41H111.74V167.07H269.72V161.41Z" fill="url(#paint8_linear_120_863)"/>
<path d="M284.48 175.5H104.35V181.16H284.48V175.5Z" fill="#FF7D72"/>
<path d="M173.48 189.59H96.97V195.25H173.48V189.59Z" fill="url(#paint9_linear_120_863)"/>
<path d="M262.33 189.59H184.57V195.25H262.33V189.59Z" fill="#FF7D72"/>
<path d="M284.49 203.67H96.97V209.33H284.49V203.67Z" fill="#FF7D72"/>
<path d="M194.28 217.76H119.13V223.41H194.28V217.76Z" fill="#FF7D72"/>
<path d="M284.49 217.76H205.37V223.41H284.49V217.76Z" fill="url(#paint10_linear_120_863)"/>
<path d="M284.49 231.85H96.97V237.51H284.49V231.85Z" fill="#FF7D72"/>
<path d="M262.33 245.93H96.97V251.59H262.33V245.93Z" fill="#FF7D72"/>
<path d="M53.17 429.66C79.7736 429.66 101.34 408.094 101.34 381.49C101.34 354.886 79.7736 333.32 53.17 333.32C26.5665 333.32 5 354.886 5 381.49C5 408.094 26.5665 429.66 53.17 429.66Z" fill="url(#paint11_linear_120_863)"/>
<path d="M30.9872 381.039L45.1156 372.264V377.419L35.9892 382.575V382.75L45.1156 387.928V393.061L30.9872 384.264V381.039ZM47.2436 358.618H52.0482L58.9149 407.102H54.1104L47.2436 358.618ZM74.0305 381.039L59.9021 372.264V377.419L69.0285 382.575V382.75L59.9021 387.928V393.061L74.0305 384.264V381.039Z" fill="white"/>
<path d="M53.17 109.81C79.7736 109.81 101.34 88.2435 101.34 61.64C101.34 35.0364 79.7736 13.47 53.17 13.47C26.5665 13.47 5 35.0364 5 61.64C5 88.2435 26.5665 109.81 53.17 109.81Z" fill="url(#paint12_linear_120_863)"/>
<path d="M39.2305 68.0119C39.2305 67.1343 39.1574 66.4031 39.0111 65.818C38.8649 65.233 38.6455 64.765 38.353 64.414C38.0605 64.0483 37.7021 63.7851 37.278 63.6242C36.8539 63.4633 36.3639 63.3682 35.8081 63.339L34.6673 63.2732V59.3462L35.7862 59.2804C36.342 59.2511 36.8319 59.156 37.2561 58.9952C37.6802 58.8343 38.0385 58.5783 38.331 58.2273C38.6236 57.8617 38.8429 57.3937 38.9892 56.8233C39.1355 56.2382 39.2086 55.5069 39.2086 54.6294V45.4372C39.2086 43.9307 39.3987 42.6437 39.779 41.576C40.1739 40.5083 40.7004 39.6381 41.3586 38.9653C42.0313 38.2779 42.8065 37.7807 43.684 37.4735C44.5616 37.1664 45.4976 37.0128 46.4922 37.0128C46.9602 37.0128 47.4794 37.064 48.0498 37.1664C48.6348 37.2688 49.2125 37.4077 49.7829 37.5832V40.9617H48.9493C48.0425 40.9617 47.2819 41.0129 46.6677 41.1153C46.068 41.2177 45.5781 41.3859 45.1978 41.6199C44.8175 41.8539 44.547 42.1683 44.3861 42.5632C44.2252 42.9435 44.1447 43.4188 44.1447 43.9892V52.7866C44.1447 53.8689 44.0862 54.8488 43.9692 55.7263C43.8669 56.5892 43.6767 57.3644 43.3988 58.0518C43.1356 58.7392 42.7699 59.3316 42.3019 59.8288C41.8485 60.3261 41.2781 60.7283 40.5907 61.0354V61.6058C41.2635 61.913 41.8266 62.3152 42.28 62.8125C42.7334 63.3097 43.099 63.9021 43.3769 64.5895C43.6548 65.2623 43.8522 66.0374 43.9692 66.915C44.0862 67.7925 44.1447 68.7651 44.1447 69.8328V78.7179C44.1447 79.2883 44.2252 79.7636 44.3861 80.1439C44.547 80.5387 44.8175 80.8532 45.1978 81.0872C45.5781 81.3358 46.068 81.5114 46.6677 81.6137C47.2819 81.7161 48.0425 81.7673 48.9493 81.7673H49.7829V85.1239C49.2125 85.314 48.6348 85.4603 48.0498 85.5627C47.4794 85.665 46.9602 85.7162 46.4922 85.7162C45.4976 85.7162 44.5616 85.5627 43.684 85.2555C42.8065 84.9484 42.0387 84.4511 41.3805 83.7637C40.7223 83.0909 40.1958 82.2207 39.8009 81.153C39.4207 80.0853 39.2305 78.791 39.2305 77.2699V68.0119ZM56.3645 81.7673C57.2566 81.7673 58.0099 81.7161 58.6241 81.6137C59.2384 81.5114 59.7357 81.3358 60.116 81.0872C60.4962 80.8532 60.7668 80.5387 60.9277 80.1439C61.0886 79.7636 61.169 79.2883 61.169 78.7179V69.8328C61.169 68.7651 61.2275 67.7925 61.3445 66.915C61.4615 66.0374 61.6517 65.2623 61.9149 64.5895C62.1928 63.9021 62.5584 63.3097 63.0118 62.8125C63.4652 62.3152 64.0283 61.913 64.7011 61.6058V61.0354C64.0137 60.7283 63.4433 60.3261 62.9899 59.8288C62.5365 59.3316 62.1709 58.7392 61.893 58.0518C61.6297 57.3644 61.4396 56.5892 61.3226 55.7263C61.2202 54.8488 61.169 53.8689 61.169 52.7866V43.9892C61.169 43.4188 61.0886 42.9435 60.9277 42.5632C60.7668 42.1683 60.4962 41.8539 60.116 41.6199C59.7357 41.3859 59.2384 41.2177 58.6241 41.1153C58.0099 41.0129 57.2566 40.9617 56.3645 40.9617H55.5308V37.5832C56.1012 37.4077 56.6716 37.2688 57.242 37.1664C57.8124 37.064 58.3389 37.0128 58.8216 37.0128C59.8015 37.0128 60.7302 37.1664 61.6078 37.4735C62.4999 37.7807 63.2751 38.2779 63.9333 38.9653C64.606 39.6381 65.1326 40.5083 65.5128 41.576C65.9077 42.6437 66.1052 43.9307 66.1052 45.4372V54.6294C66.1052 55.5069 66.1783 56.2382 66.3245 56.8233C66.4708 57.3937 66.6902 57.8617 66.9827 58.2273C67.2752 58.5783 67.6335 58.8343 68.0577 58.9952C68.4818 59.156 68.9718 59.2511 69.5276 59.2804L70.6464 59.3462V63.2732L69.5056 63.339C68.9499 63.3682 68.4599 63.4633 68.0357 63.6242C67.6116 63.7851 67.2533 64.0483 66.9608 64.414C66.6682 64.765 66.4489 65.233 66.3026 65.818C66.1564 66.4031 66.0832 67.1343 66.0832 68.0119V77.2699C66.0832 78.791 65.8858 80.0853 65.4909 81.153C65.1106 82.2207 64.5914 83.0909 63.9333 83.7637C63.2751 84.4511 62.4999 84.9484 61.6078 85.2555C60.7302 85.5627 59.8015 85.7162 58.8216 85.7162C58.3389 85.7162 57.8124 85.665 57.242 85.5627C56.6716 85.4603 56.1012 85.314 55.5308 85.1239V81.7673H56.3645Z" fill="white"/>
<path d="M225.95 94.56C248.014 94.56 265.9 76.6737 265.9 54.61C265.9 32.5462 248.014 14.66 225.95 14.66C203.886 14.66 186 32.5462 186 54.61C186 76.6737 203.886 94.56 225.95 94.56Z" fill="url(#paint13_linear_120_863)"/>
<path d="M211.702 69.1348C211.303 69.1348 210.868 69.0998 210.399 69.0299C209.939 68.9699 209.475 68.835 209.005 68.6253C208.546 68.4155 208.101 68.1207 207.671 67.7411C207.252 67.3515 206.877 66.842 206.548 66.2126C206.228 65.5832 205.968 64.809 205.768 63.8899C205.578 62.9608 205.484 61.8569 205.484 60.5781V51.512C205.484 50.2232 205.583 49.1243 205.783 48.2152C205.983 47.2961 206.248 46.5269 206.577 45.9075C206.907 45.2781 207.287 44.7786 207.716 44.4089C208.146 44.0393 208.591 43.7596 209.05 43.5697C209.51 43.3699 209.964 43.2401 210.414 43.1801C210.873 43.1202 211.298 43.0902 211.687 43.0902C212.706 43.0902 213.556 43.2351 214.235 43.5248C214.924 43.8045 215.474 44.1941 215.883 44.6936C216.303 45.1832 216.598 45.7576 216.768 46.417C216.947 47.0763 217.037 47.7756 217.037 48.5149C217.037 49.0644 217.007 49.5739 216.947 50.0434C216.897 50.503 216.817 51.0125 216.708 51.5719H213.561V50.2682C213.561 48.8596 213.406 47.8056 213.096 47.1063C212.786 46.407 212.332 46.0573 211.732 46.0573C211.373 46.0573 211.058 46.1272 210.788 46.2671C210.519 46.407 210.294 46.6467 210.114 46.9864C209.934 47.3161 209.794 47.7557 209.694 48.3051C209.605 48.8546 209.56 49.5389 209.56 50.3581V62.0467C209.56 62.8459 209.595 63.5103 209.664 64.0397C209.744 64.5692 209.869 64.9938 210.039 65.3135C210.209 65.6332 210.429 65.863 210.698 66.0028C210.978 66.1327 211.313 66.1976 211.702 66.1976C211.952 66.1976 212.192 66.1427 212.422 66.0328C212.652 65.9129 212.851 65.7331 213.021 65.4933C213.201 65.2436 213.341 64.9339 213.441 64.5642C213.551 64.1846 213.606 63.74 213.606 63.2305V60.728H217.157V63.0957C217.157 65.1536 216.688 66.6722 215.749 67.6512C214.809 68.6302 213.461 69.1248 211.702 69.1348ZM219.225 63.725C219.225 63.1756 219.255 62.6711 219.315 62.2115C219.385 61.742 219.485 61.2375 219.615 60.698H222.627V61.9418C222.627 62.6311 222.667 63.2405 222.747 63.77C222.837 64.2995 222.976 64.749 223.166 65.1187C223.366 65.4783 223.626 65.7531 223.946 65.9429C224.275 66.1227 224.675 66.2126 225.144 66.2126C225.884 66.2126 226.448 66.0128 226.838 65.6132C227.227 65.2036 227.422 64.6092 227.422 63.8299C227.422 63.4303 227.392 63.0657 227.332 62.736C227.282 62.3963 227.187 62.0617 227.047 61.732C226.918 61.4023 226.738 61.0576 226.508 60.698C226.278 60.3284 225.984 59.9188 225.624 59.4692L221.578 54.6589C220.859 53.7398 220.304 52.8157 219.914 51.8866C219.525 50.9475 219.33 49.9485 219.33 48.8895C219.33 48.0404 219.46 47.2611 219.72 46.5518C219.989 45.8425 220.374 45.2331 220.874 44.7236C221.373 44.2041 221.987 43.8045 222.717 43.5248C223.456 43.2351 224.29 43.0902 225.219 43.0902C226.348 43.0902 227.287 43.2501 228.037 43.5697C228.796 43.8894 229.4 44.309 229.85 44.8285C230.299 45.348 230.614 45.9324 230.794 46.5818C230.984 47.2212 231.079 47.8655 231.079 48.5149C231.079 49.0644 231.034 49.5739 230.944 50.0434C230.864 50.503 230.769 51.0125 230.659 51.5719H227.662V50.3581C227.662 48.9994 227.467 47.9605 227.077 47.2412C226.688 46.5119 226.053 46.1472 225.174 46.1472C224.445 46.1472 223.901 46.352 223.541 46.7616C223.181 47.1612 223.001 47.7007 223.001 48.38C223.001 48.7397 223.026 49.0644 223.076 49.3541C223.136 49.6438 223.216 49.9135 223.316 50.1633C223.426 50.4031 223.556 50.6378 223.706 50.8676C223.856 51.0974 224.025 51.3372 224.215 51.5869L228.726 57.0416C229.545 58.1105 230.174 59.1395 230.614 60.1286C231.054 61.1076 231.273 62.1466 231.273 63.2455C231.273 64.1546 231.128 64.9738 230.839 65.7031C230.559 66.4324 230.154 67.0518 229.625 67.5613C229.095 68.0708 228.456 68.4654 227.707 68.7451C226.958 69.0149 226.113 69.1497 225.174 69.1497C224.015 69.1497 223.051 68.9949 222.282 68.6852C221.523 68.3755 220.913 67.9659 220.454 67.4564C220.004 66.9469 219.685 66.3675 219.495 65.7181C219.315 65.0687 219.225 64.4044 219.225 63.725ZM233.551 63.725C233.551 63.1756 233.581 62.6711 233.641 62.2115C233.711 61.742 233.811 61.2375 233.941 60.698H236.953V61.9418C236.953 62.6311 236.993 63.2405 237.073 63.77C237.163 64.2995 237.302 64.749 237.492 65.1187C237.692 65.4783 237.952 65.7531 238.271 65.9429C238.601 66.1227 239.001 66.2126 239.47 66.2126C240.21 66.2126 240.774 66.0128 241.164 65.6132C241.553 65.2036 241.748 64.6092 241.748 63.8299C241.748 63.4303 241.718 63.0657 241.658 62.736C241.608 62.3963 241.513 62.0617 241.373 61.732C241.244 61.4023 241.064 61.0576 240.834 60.698C240.604 60.3284 240.31 59.9188 239.95 59.4692L235.904 54.6589C235.185 53.7398 234.63 52.8157 234.24 51.8866C233.851 50.9475 233.656 49.9485 233.656 48.8895C233.656 48.0404 233.786 47.2611 234.046 46.5518C234.315 45.8425 234.7 45.2331 235.2 44.7236C235.699 44.2041 236.313 43.8045 237.043 43.5248C237.782 43.2351 238.616 43.0902 239.545 43.0902C240.674 43.0902 241.613 43.2501 242.363 43.5697C243.122 43.8894 243.726 44.309 244.176 44.8285C244.625 45.348 244.94 45.9324 245.12 46.5818C245.31 47.2212 245.405 47.8655 245.405 48.5149C245.405 49.0644 245.36 49.5739 245.27 50.0434C245.19 50.503 245.095 51.0125 244.985 51.5719H241.988V50.3581C241.988 48.9994 241.793 47.9605 241.403 47.2412C241.014 46.5119 240.379 46.1472 239.5 46.1472C238.771 46.1472 238.227 46.352 237.867 46.7616C237.507 47.1612 237.327 47.7007 237.327 48.38C237.327 48.7397 237.352 49.0644 237.402 49.3541C237.462 49.6438 237.542 49.9135 237.642 50.1633C237.752 50.4031 237.882 50.6378 238.032 50.8676C238.182 51.0974 238.351 51.3372 238.541 51.5869L243.052 57.0416C243.871 58.1105 244.5 59.1395 244.94 60.1286C245.38 61.1076 245.599 62.1466 245.599 63.2455C245.599 64.1546 245.454 64.9738 245.165 65.7031C244.885 66.4324 244.48 67.0518 243.951 67.5613C243.421 68.0708 242.782 68.4654 242.033 68.7451C241.284 69.0149 240.439 69.1497 239.5 69.1497C238.341 69.1497 237.377 68.9949 236.608 68.6852C235.849 68.3755 235.239 67.9659 234.78 67.4564C234.33 66.9469 234.011 66.3675 233.821 65.7181C233.641 65.0687 233.551 64.4044 233.551 63.725Z" fill="white"/>
<path d="M408.49 94.56C432.509 94.56 451.98 75.0889 451.98 51.07C451.98 27.0512 432.509 7.58002 408.49 7.58002C384.471 7.58002 365 27.0512 365 51.07C365 75.0889 384.471 94.56 408.49 94.56Z" fill="url(#paint14_linear_120_863)"/>
<path d="M376.382 37.5466H380.607V49.2107H385.615V37.5466H389.84V65.41H385.615V52.5386H380.607V65.41H376.382V37.5466ZM397.23 40.8745H392.744V37.5466H405.925V40.8745H401.456V65.41H397.23V40.8745ZM408.78 37.5466H414.294L416.97 48.3298C417.252 49.5261 417.475 50.668 417.639 51.7556C417.802 52.8323 417.959 53.8492 418.112 54.8062H418.242C418.394 53.8492 418.552 52.8323 418.715 51.7556C418.878 50.668 419.101 49.5261 419.384 48.3298L422.141 37.5466H427.541V65.41H423.593V56.1929C423.593 54.779 423.604 53.4196 423.626 52.1145C423.658 50.8094 423.696 49.6131 423.74 48.5255C423.783 47.4271 423.832 46.4592 423.887 45.6217C423.941 44.7843 423.99 44.1209 424.033 43.6315H423.723L419.515 61.821H416.839L412.598 43.6315H412.288C412.331 44.1209 412.38 44.7843 412.435 45.6217C412.489 46.4592 412.538 47.4271 412.581 48.5255C412.625 49.6131 412.658 50.8094 412.679 52.1145C412.712 53.4196 412.728 54.779 412.728 56.1929V65.41H408.78V37.5466ZM432.304 37.5466H436.53V62.082H442.288V65.41H432.304V37.5466Z" fill="white"/>
<path d="M511.76 75.88C529.952 75.88 544.7 61.1323 544.7 42.94C544.7 24.7477 529.952 10 511.76 10C493.568 10 478.82 24.7477 478.82 42.94C478.82 61.1323 493.568 75.88 511.76 75.88Z" fill="url(#paint15_linear_120_863)"/>
<path d="M504.118 53.1177C503.327 53.1177 502.664 52.9941 502.128 52.747C501.593 52.4998 501.16 52.1661 500.83 51.7459C500.509 51.3175 500.278 50.8191 500.138 50.2506C499.998 49.6821 499.928 49.0806 499.928 48.4462C499.928 48.0013 499.957 47.5029 500.015 46.9509C500.073 46.3906 500.159 45.8304 500.274 45.2701H502.833L502.795 47.8407C502.795 48.3845 502.82 48.8417 502.87 49.2125C502.919 49.575 502.993 49.8675 503.092 50.0899C503.199 50.3041 503.331 50.4607 503.488 50.5595C503.652 50.6502 503.85 50.6955 504.081 50.6955C504.27 50.6955 504.439 50.6584 504.587 50.5842C504.744 50.5101 504.876 50.3824 504.983 50.2011C505.09 50.0116 505.172 49.7604 505.23 49.4473C505.288 49.126 505.317 48.7264 505.317 48.2485L505.354 31.8118H508.554V47.8036C508.554 48.8911 508.431 49.7809 508.184 50.473C507.937 51.1651 507.603 51.7089 507.183 52.1043C506.771 52.4916 506.297 52.7593 505.761 52.9076C505.234 53.0477 504.686 53.1177 504.118 53.1177ZM511.273 48.644C511.273 48.1908 511.298 47.7748 511.347 47.3958C511.405 47.0085 511.488 46.5925 511.595 46.1476H514.079V47.1733C514.079 47.7418 514.112 48.2444 514.178 48.6811C514.252 49.1177 514.367 49.4885 514.524 49.7933C514.688 50.0899 514.903 50.3165 515.166 50.473C515.438 50.6213 515.768 50.6955 516.155 50.6955C516.765 50.6955 517.23 50.5307 517.551 50.2011C517.873 49.8633 518.033 49.3731 518.033 48.7305C518.033 48.4009 518.009 48.1002 517.959 47.8283C517.918 47.5482 517.84 47.2722 517.724 47.0003C517.617 46.7284 517.469 46.4442 517.28 46.1476C517.09 45.8427 516.847 45.5049 516.55 45.1342L513.214 41.1671C512.62 40.4092 512.163 39.6471 511.842 38.8808C511.521 38.1064 511.36 37.2825 511.36 36.4092C511.36 35.7089 511.467 35.0662 511.681 34.4813C511.904 33.8963 512.221 33.3937 512.633 32.9735C513.045 32.5451 513.551 32.2155 514.153 31.9849C514.763 31.7459 515.45 31.6265 516.217 31.6265C517.148 31.6265 517.922 31.7583 518.54 32.0219C519.166 32.2856 519.665 32.6316 520.035 33.06C520.406 33.4885 520.666 33.9704 520.814 34.506C520.971 35.0333 521.049 35.5647 521.049 36.1002C521.049 36.5533 521.012 36.9735 520.938 37.3608C520.872 37.7398 520.793 38.1599 520.703 38.6213H518.231V37.6203C518.231 36.4998 518.07 35.6429 517.749 35.0497C517.428 34.4483 516.905 34.1476 516.18 34.1476C515.578 34.1476 515.129 34.3165 514.833 34.6543C514.536 34.9838 514.388 35.4287 514.388 35.989C514.388 36.2856 514.408 36.5533 514.449 36.7923C514.499 37.0312 514.565 37.2537 514.647 37.4596C514.738 37.6574 514.845 37.851 514.969 38.0405C515.092 38.23 515.232 38.4277 515.389 38.6337L519.109 43.1321C519.784 44.0137 520.303 44.8623 520.666 45.678C521.028 46.4854 521.209 47.3422 521.209 48.2485C521.209 48.9983 521.09 49.6738 520.851 50.2753C520.62 50.8767 520.287 51.3875 519.85 51.8077C519.413 52.2279 518.886 52.5534 518.268 52.784C517.65 53.0065 516.954 53.1177 516.18 53.1177C515.224 53.1177 514.429 52.99 513.794 52.7346C513.168 52.4792 512.666 52.1414 512.287 51.7212C511.916 51.301 511.652 50.8232 511.496 50.2876C511.347 49.7521 511.273 49.2042 511.273 48.644Z" fill="white"/>
<path d="M317.13 118.53C335.427 118.53 350.26 103.697 350.26 85.4C350.26 67.1028 335.427 52.27 317.13 52.27C298.833 52.27 284 67.1028 284 85.4C284 103.697 298.833 118.53 317.13 118.53Z" fill="url(#paint16_linear_120_863)"/>
<path d="M299.236 75.9251H302.529L304.865 92.7385H305.002L307.351 75.9251H310.631L306.767 97.15H303.088L299.236 75.9251ZM312.62 75.9251H315.863V91.4834C315.863 92.1462 315.896 92.6971 315.963 93.1362C316.029 93.5753 316.132 93.9274 316.273 94.1925C316.422 94.4493 316.609 94.6357 316.832 94.7517C317.064 94.8594 317.338 94.9132 317.653 94.9132C317.967 94.9132 318.241 94.8594 318.473 94.7517C318.713 94.6357 318.908 94.4493 319.057 94.1925C319.214 93.9274 319.33 93.5753 319.405 93.1362C319.488 92.6971 319.529 92.1462 319.529 91.4834V75.9251H322.735V90.626C322.735 91.6615 322.652 92.548 322.487 93.2853C322.321 94.0226 322.101 94.6398 321.828 95.1369C321.555 95.634 321.24 96.0275 320.884 96.3174C320.536 96.6074 320.171 96.8311 319.79 96.9885C319.417 97.1376 319.044 97.2329 318.672 97.2743C318.299 97.3157 317.959 97.3364 317.653 97.3364C317.346 97.3364 317.006 97.3157 316.634 97.2743C316.269 97.2329 315.9 97.1376 315.528 96.9885C315.155 96.8311 314.794 96.6074 314.446 96.3174C314.099 96.0275 313.788 95.634 313.514 95.1369C313.241 94.6398 313.022 94.0268 312.856 93.2977C312.698 92.5604 312.62 91.6698 312.62 90.626V75.9251ZM326.289 75.9251H334.155V78.4602H329.508V84.8103H333.099V87.3453H329.508V94.615H334.28V97.15H326.289V75.9251Z" fill="white"/>
<path d="M212.51 226.12L241.89 311.52H247.5L217.52 224.39L212.51 226.12Z" fill="url(#paint17_linear_120_863)"/>
<path d="M241.9 311.52H332.21V306.21H240.06L241.9 311.52Z" fill="url(#paint18_linear_120_863)"/>
<path d="M338 485.85L336.93 498.37C336.93 498.37 314.26 510.52 309.84 508.72C305.42 506.92 317.31 503.06 312.75 496.72L312.87 485.86L338 485.85Z" fill="url(#paint19_linear_120_863)"/>
<path d="M341.86 519.88C341.873 520.315 341.799 520.748 341.643 521.154C341.486 521.559 341.25 521.93 340.948 522.243C340.646 522.556 340.285 522.806 339.885 522.977C339.485 523.148 339.055 523.238 338.62 523.24H273.08C273.08 523.24 270.08 516.6 279.31 512.32C288.54 508.04 312.75 496.71 312.75 496.71C317.31 503.06 305.43 506.92 309.84 508.71C314.25 510.5 336.93 498.36 336.93 498.36C336.93 498.36 341.35 502.29 341.86 519.88Z" fill="url(#paint20_linear_120_863)"/>
<path d="M413.15 354.32L350.59 376.46L350.02 382.46L340.23 485.85H309.88L308.72 465.85L302.25 354.72C301.923 349.202 303.67 343.761 307.149 339.465C310.627 335.169 315.585 332.328 321.05 331.5L387.44 321.4C387.44 321.4 388.31 327.68 402.88 344.24C406.042 347.856 409.475 351.226 413.15 354.32Z" fill="url(#paint21_linear_120_863)"/>
<path d="M446.8 372.6C438.6 382.13 421.75 382.46 421.75 382.46H324.43L308.72 465.9L304.96 485.9L277.5 484.12L286.23 352.74C286.533 348.15 288.395 343.802 291.509 340.417C294.624 337.032 298.802 334.814 303.35 334.13L387.43 321.45C387.43 321.45 388.3 327.73 402.87 344.29C406.035 347.878 409.469 351.221 413.14 354.29C423.031 362.571 434.474 368.796 446.8 372.6Z" fill="url(#paint22_linear_120_863)"/>
<path d="M422.91 178.19C422.91 178.19 419.26 188.61 396.76 191.72L391.17 179.72C398.34 168.91 408.43 154.99 408.43 154.99L412.2 162.99L422.91 178.19Z" fill="url(#paint23_linear_120_863)"/>
<path d="M454.66 374.53C452 374.063 449.374 373.419 446.8 372.6C434.48 368.803 423.041 362.589 413.15 354.32C409.479 351.251 406.045 347.908 402.88 344.32C388.31 327.76 387.44 321.48 387.44 321.48V295.19C388.249 294.382 388.995 293.513 389.67 292.59L407.15 268.59L411.22 270.59C411.22 270.59 440.74 220.4 436.88 206.68C432.06 189.56 412.88 189.68 406.39 194.91C400.39 199.8 384.99 237.5 379.93 250.16C378.033 249.254 376.308 248.026 374.83 246.53C385.26 212.53 396.76 191.7 396.76 191.7C419.26 188.59 422.91 178.17 422.91 178.17C422.91 178.17 449.91 188.4 456.59 226.17C462.81 261.62 464.95 352.01 454.66 374.53Z" fill="url(#paint24_linear_120_863)"/>
<path d="M382.28 244.41C382.28 244.41 387.6 217.54 391.17 210.41C391.17 210.41 384.85 232.41 384.86 243.03L382.28 244.41Z" fill="#E0AC0D"/>
<path d="M436.88 206.74C436.88 206.74 439.54 210.6 438.7 217.45C437.86 224.3 424.98 258.93 409.75 276.38C403.253 283.687 395.74 290.022 387.44 295.19L395.9 264.48L436.88 206.74Z" fill="#E0AC0D"/>
<path d="M411.22 270.65L407.15 268.65L378.32 254.37C378.32 254.37 378.92 252.83 379.94 250.24C385 237.58 400.41 199.88 406.4 194.99C412.86 189.74 432.07 189.64 436.89 206.76C440.74 220.46 411.22 270.65 411.22 270.65Z" fill="url(#paint25_linear_120_863)"/>
<path d="M407.15 268.63L389.67 292.63C387.779 295.21 385.358 297.356 382.569 298.922C379.78 300.488 376.687 301.439 373.5 301.71L307.5 307.03C305.03 308.809 302.131 309.9 299.1 310.19C294.49 310.42 292.1 305.28 287.72 305.19C283.72 305.12 276.58 312.14 274.9 310.44C274.4 309.93 274.99 308.85 276.06 307.6C273.99 309.68 271.65 311.36 270.24 310C269.24 309.06 271.83 305.78 275.24 302.56C278.45 299.56 282.4 296.56 284.86 295.71C289.96 293.9 307.49 294.93 307.49 294.93L366.36 275.93L378.29 254.44L407.15 268.63Z" fill="url(#paint26_linear_120_863)"/>
<path d="M378.31 254.35L366.38 275.84L307.51 294.84C307.51 294.84 289.98 293.84 284.88 295.62C282.42 296.5 278.47 299.45 275.26 302.47C275.77 301.8 284.02 291.16 291.26 289.62C296.72 288.45 307.53 290.45 307.53 290.45L366.28 261.23L374.85 246.56C376.327 248.056 378.053 249.284 379.95 250.19C378.91 252.81 378.31 254.35 378.31 254.35Z" fill="url(#paint27_linear_120_863)"/>
<g style="mix-blend-mode:multiply">
<path style="mix-blend-mode:multiply" d="M276.06 307.57C276.542 306.856 277.088 306.186 277.69 305.57C278.27 304.94 278.91 304.36 279.55 303.78C280.19 303.2 280.86 302.67 281.55 302.16C282.235 301.639 282.949 301.158 283.69 300.72C283.08 301.33 282.44 301.91 281.81 302.48L279.9 304.18C278.61 305.31 277.34 306.42 276.06 307.58V307.57Z" fill="url(#paint28_linear_120_863)"/>
</g>
<path d="M303.36 485.74L302.31 498.37C302.31 498.37 279.63 510.52 275.22 508.72C270.81 506.92 282.68 503.06 278.12 496.72L278.86 484.22L303.36 485.74Z" fill="url(#paint29_linear_120_863)"/>
<path d="M307.23 519.88C307.245 520.315 307.172 520.749 307.016 521.155C306.86 521.562 306.624 521.933 306.321 522.246C306.019 522.559 305.657 522.809 305.257 522.98C304.856 523.15 304.425 523.239 303.99 523.24H238.5C238.5 523.24 235.5 516.6 244.71 512.32C253.92 508.04 278.15 496.71 278.15 496.71C282.71 503.06 270.85 506.92 275.25 508.71C279.65 510.5 302.34 498.36 302.34 498.36C302.34 498.36 306.73 502.29 307.23 519.88Z" fill="url(#paint30_linear_120_863)"/>
<path d="M473.97 392.67L465.19 386.06L479.79 283.93L486.75 184.66L496.36 185.34L489.37 284.95L489.35 285.12L473.97 392.67Z" fill="url(#paint31_linear_120_863)"/>
<path d="M371.9 407.64H433.9V410.25C433.9 411.841 433.268 413.367 432.143 414.493C431.017 415.618 429.491 416.25 427.9 416.25H377.88C376.289 416.25 374.762 415.618 373.637 414.493C372.512 413.367 371.88 411.841 371.88 410.25V407.64H371.9Z" fill="url(#paint32_linear_120_863)"/>
<path d="M409.9 416.23H395.92V502.22H409.9V416.23Z" fill="url(#paint33_linear_120_863)"/>
<path d="M414.21 485.85H391.62V502.22H414.21V485.85Z" fill="url(#paint34_linear_120_863)"/>
<path d="M456.66 523.24C460.112 523.24 462.91 520.442 462.91 516.99C462.91 513.538 460.112 510.74 456.66 510.74C453.208 510.74 450.41 513.538 450.41 516.99C450.41 520.442 453.208 523.24 456.66 523.24Z" fill="url(#paint35_linear_120_863)"/>
<path d="M402.91 523.24C406.362 523.24 409.16 520.442 409.16 516.99C409.16 513.538 406.362 510.74 402.91 510.74C399.458 510.74 396.66 513.538 396.66 516.99C396.66 520.442 399.458 523.24 402.91 523.24Z" fill="url(#paint36_linear_120_863)"/>
<path d="M349.17 523.24C352.622 523.24 355.42 520.442 355.42 516.99C355.42 513.538 352.622 510.74 349.17 510.74C345.718 510.74 342.92 513.538 342.92 516.99C342.92 520.442 345.718 523.24 349.17 523.24Z" fill="url(#paint37_linear_120_863)"/>
<path d="M339.06 311.52H99V325.52H339.06V311.52Z" fill="url(#paint38_linear_120_863)"/>
<path d="M120.69 523.24H109.53L130.93 325.52H142.09L120.69 523.24Z" fill="url(#paint39_linear_120_863)"/>
<path d="M317.35 523.24H328.51L307.12 325.52H295.96L317.35 523.24Z" fill="url(#paint40_linear_120_863)"/>
<path d="M353.01 502.19H452.81C455.088 502.19 457.273 503.095 458.884 504.706C460.495 506.317 461.4 508.502 461.4 510.78H344.4C344.4 508.502 345.305 506.317 346.916 504.706C348.527 503.095 350.712 502.19 352.99 502.19H353.01Z" fill="url(#paint41_linear_120_863)"/>
<path d="M469.82 382.46H336.01C332.597 382.46 329.83 385.227 329.83 388.64V401.46C329.83 404.873 332.597 407.64 336.01 407.64H469.82C473.233 407.64 476 404.873 476 401.46V388.64C476 385.227 473.233 382.46 469.82 382.46Z" fill="url(#paint42_linear_120_863)"/>
<path d="M493.311 234.905L481.98 233.746C478.585 233.399 475.551 235.87 475.204 239.265L463.994 348.864C463.647 352.259 466.118 355.293 469.513 355.64L480.844 356.799C484.239 357.147 487.273 354.676 487.621 351.28L498.83 241.682C499.178 238.287 496.707 235.252 493.311 234.905Z" fill="url(#paint43_linear_120_863)"/>
<path d="M494.29 158.57H484.79C481.377 158.57 478.61 161.337 478.61 164.75V210.24C478.61 213.653 481.377 216.42 484.79 216.42H494.29C497.703 216.42 500.47 213.653 500.47 210.24V164.75C500.47 161.337 497.703 158.57 494.29 158.57Z" fill="url(#paint44_linear_120_863)"/>
<path d="M410.23 159.91C409.54 162.99 407.83 165.77 404.91 166.01C404.91 166.01 405.15 177.91 393.03 186.61C380.5 195.61 377.1 187.78 376.73 186.06C376.36 184.34 372.16 178.71 370.6 175.15C370.279 175.183 369.955 175.15 369.648 175.052C369.341 174.955 369.057 174.795 368.814 174.583C368.571 174.371 368.374 174.111 368.236 173.82C368.098 173.529 368.021 173.212 368.01 172.89C368.01 172.24 368.53 169.5 368.8 167.31C368.8 167.2 368.8 167.09 368.8 166.98C368.58 166.78 368.06 166.04 367.8 165.78C366.127 164.029 364.773 161.998 363.8 159.78C363.6 159.33 363.45 158.92 363.32 158.56C362.69 156.88 363.14 146.07 363.14 146.07C365.35 144.07 369.82 142.59 375.14 142.41C378.31 142.327 381.389 141.334 384.01 139.55L383.49 148.55C383.49 148.55 392.89 150.44 394.49 158.99L398.17 158.18C398.17 158.18 400.72 152 404.22 151.87C404.604 151.607 405.035 151.42 405.49 151.32C408.88 150.57 410.26 153.58 410.4 155.75C410.541 157.138 410.484 158.538 410.23 159.91Z" fill="url(#paint45_linear_120_863)"/>
<path d="M413.56 159.04L413.2 165.04L411.2 166.49C411.075 164.277 410.74 162.08 410.2 159.93C410.503 158.572 410.61 157.178 410.52 155.79C410.38 153.63 409 150.62 405.61 151.37C405.157 151.471 404.727 151.654 404.34 151.91C400.84 152.05 398.29 158.22 398.29 158.22L394.61 159.04C393 150.49 383.61 148.6 383.61 148.6L384.13 139.6C388.06 137 391.13 133.16 395.13 130.25C397.3 128.7 401.13 126.6 404.33 127.34C405.612 127.637 406.734 128.409 407.47 129.5C410.71 134 415.26 151.19 413.56 159.04Z" fill="#2F3654"/>
<path d="M404.36 127.35C401.18 126.61 397.36 128.71 395.16 130.25C391.1 133.16 388.08 137.01 384.16 139.6C381.539 141.384 378.46 142.377 375.29 142.46C369.93 142.64 365.46 144.1 363.29 146.12C361.95 146.029 360.64 145.673 359.439 145.073C358.237 144.472 357.167 143.638 356.29 142.62C357.562 142.632 358.805 142.24 359.84 141.5C358.876 141.675 357.882 141.532 357.007 141.092C356.132 140.651 355.424 139.938 354.99 139.06C356.6 140.06 358.99 138.93 358.99 138.93C357.996 138.967 357.017 138.673 356.208 138.094C355.399 137.515 354.805 136.683 354.52 135.73C355.289 136.077 356.118 136.267 356.961 136.291C357.804 136.316 358.643 136.172 359.43 135.87C355.83 135.61 355.07 133.31 355.07 133.31H355.22C361.91 131.78 369.76 125.97 369.76 125.97L367.44 126.05C367.44 126.05 370.88 122.73 386.34 119.35C388.673 118.792 391.081 118.62 393.47 118.84C394.395 118.937 395.308 119.118 396.2 119.38C398.1 119.957 399.832 120.982 401.253 122.369C402.673 123.756 403.739 125.465 404.36 127.35Z" fill="#1F243E"/>
<path d="M376.03 169.19C376.478 169.415 376.869 169.738 377.175 170.134C377.481 170.53 377.695 170.99 377.8 171.48C377.863 171.745 377.867 172.021 377.814 172.289C377.76 172.556 377.65 172.809 377.49 173.03C377.309 173.267 377.051 173.433 376.76 173.5C376.45 173.56 376.25 173.55 376 173.58C375.068 173.567 374.144 173.755 373.29 174.13C372.856 174.328 372.432 174.548 372.02 174.79C371.588 175.034 371.097 175.155 370.6 175.14C371.6 174.99 372.22 174.22 373.1 173.76C373.532 173.494 374.005 173.302 374.5 173.19C374.985 173.098 375.477 173.044 375.97 173.03C376.49 173.03 376.86 173.03 377.11 172.7C377.36 172.361 377.467 171.937 377.41 171.52C377.261 170.597 376.768 169.764 376.03 169.19Z" fill="#8F3F22"/>
<path d="M400.02 125.11C395.25 124.63 391.46 128.11 384.78 134.91C378.1 141.71 376.39 139.98 370.25 140.57C364.11 141.16 361.73 137.78 361.73 137.78C364.07 139.69 368.93 138 368.93 138C364.75 136.73 364.33 133.59 364.33 133.59C365.722 134.104 367.224 134.249 368.689 134.011C370.154 133.772 371.532 133.159 372.69 132.23C368.82 132.42 369.93 129.71 369.93 129.71C375.22 130.21 379.79 126.89 379.79 126.89C374.21 127.45 373.34 125.65 373.34 125.65C373.34 125.65 382.99 125.04 389.51 122.28C396.03 119.52 400.02 125.11 400.02 125.11Z" fill="#2F3654"/>
<path d="M405.28 155.96C405.139 155.923 404.995 155.899 404.85 155.89C404.918 155.397 405.053 154.916 405.25 154.46C405.394 154.103 405.643 153.797 405.965 153.585C406.286 153.372 406.665 153.262 407.05 153.27C406.846 153.162 406.621 153.097 406.391 153.08C406.16 153.063 405.928 153.094 405.71 153.17C405.254 153.345 404.861 153.651 404.58 154.05C404.088 154.821 403.802 155.706 403.75 156.62C403.71 157.056 403.71 157.494 403.75 157.93C403.752 158.362 403.789 158.794 403.86 159.22C403.979 160.072 404.193 160.907 404.5 161.71C404.61 160.85 404.59 160.01 404.64 159.18C404.64 158.76 404.64 158.35 404.64 157.94C404.645 157.552 404.675 157.164 404.73 156.78C404.907 156.715 405.097 156.689 405.285 156.705C405.473 156.72 405.656 156.777 405.82 156.87C406.274 157.182 406.601 157.647 406.74 158.18C406.755 157.562 406.541 156.96 406.14 156.49C405.911 156.234 405.612 156.049 405.28 155.96Z" fill="#8F3F22"/>
<path d="M401.71 157.19C401.71 157.19 402.11 153.43 404.37 151.9C404.37 151.88 400.64 152.11 401.71 157.19Z" fill="url(#paint46_linear_120_863)"/>
<path d="M368.8 167.31C368.8 167.2 368.8 167.09 368.8 166.98C368.58 166.78 368.06 166.04 367.8 165.78C366.127 164.029 364.773 161.998 363.8 159.78C363.8 159.78 367.32 159.59 369.09 160.89C369.09 160.89 370.89 164.35 367.9 172.89C368.01 172.24 368.5 169.5 368.8 167.31Z" fill="url(#paint47_linear_120_863)"/>
<path d="M375.35 161.47C376.456 160.833 377.689 160.447 378.961 160.34C380.233 160.233 381.513 160.407 382.71 160.85C381.497 161.985 379.944 162.688 378.29 162.85C375.93 162.83 375.35 161.47 375.35 161.47Z" fill="url(#paint48_linear_120_863)"/>
<path d="M365.36 162.55C365.36 162.55 365.7 162.1 367.07 161.98C367.527 161.976 367.981 162.062 368.405 162.233C368.829 162.405 369.214 162.659 369.54 162.98C368.864 163.561 368.01 163.892 367.12 163.92C366.739 163.847 366.381 163.685 366.075 163.447C365.769 163.209 365.524 162.901 365.36 162.55Z" fill="url(#paint49_linear_120_863)"/>
<path d="M375.35 161.47C375.768 160.92 376.301 160.469 376.913 160.149C377.525 159.829 378.2 159.649 378.89 159.62C379.567 159.592 380.244 159.684 380.89 159.89C381.213 159.998 381.528 160.132 381.83 160.29C382.121 160.459 382.402 160.646 382.67 160.85C382.01 160.7 381.39 160.55 380.76 160.46C380.145 160.366 379.522 160.336 378.9 160.37C378.282 160.405 377.671 160.516 377.08 160.7C376.475 160.888 375.894 161.146 375.35 161.47Z" fill="#1F243E"/>
<path d="M365.36 162.55C365.627 162.239 365.972 162.004 366.36 161.87C366.942 161.678 367.57 161.682 368.15 161.881C368.729 162.079 369.228 162.462 369.57 162.97C368.931 162.59 368.23 162.326 367.5 162.19C366.768 162.127 366.031 162.251 365.36 162.55Z" fill="#1F243E"/>
<path d="M369.19 160.62C369.19 160.62 369.19 160.71 369.19 160.92C367.55 159.64 363.9 159.81 363.9 159.81C363.9 159.81 363.69 159.81 363.5 159.37C363.31 158.93 363.4 158.61 363.4 158.61C363.4 158.61 368.5 157.91 369.19 160.62Z" fill="#1F243E"/>
<path d="M371.23 159.24C371.23 159.24 378.32 155.66 383.23 157.52C383.23 157.52 376.17 158.29 373.11 159.74C370.05 161.19 371.23 159.24 371.23 159.24Z" fill="#1F243E"/>
<path d="M375.35 180.19C375.935 180.059 376.505 179.868 377.05 179.62C377.575 179.389 378.083 179.122 378.57 178.82C379.06 178.526 379.525 178.191 379.96 177.82C380.413 177.433 380.828 177.005 381.2 176.54C381.169 177.198 380.935 177.83 380.53 178.35C380.142 178.88 379.652 179.329 379.09 179.67C378.53 180.008 377.913 180.241 377.27 180.36C376.628 180.505 375.957 180.445 375.35 180.19Z" fill="#8F3F22"/>
<path d="M378.19 162.7C378.786 162.7 379.27 162.216 379.27 161.62C379.27 161.024 378.786 160.54 378.19 160.54C377.593 160.54 377.11 161.024 377.11 161.62C377.11 162.216 377.593 162.7 378.19 162.7Z" fill="#1F243E"/>
<path d="M368.17 162.97C368.198 163.079 368.203 163.193 368.184 163.304C368.165 163.416 368.123 163.522 368.061 163.616C367.999 163.71 367.918 163.79 367.823 163.851C367.728 163.912 367.621 163.953 367.51 163.97C367.28 163.991 367.05 163.932 366.858 163.803C366.667 163.673 366.526 163.481 366.46 163.26C366.42 163.151 366.403 163.035 366.411 162.92C366.418 162.804 366.45 162.691 366.503 162.589C366.557 162.486 366.632 162.396 366.722 162.324C366.813 162.251 366.918 162.199 367.03 162.17C367.287 162.129 367.549 162.19 367.762 162.339C367.975 162.488 368.121 162.715 368.17 162.97Z" fill="#1F243E"/>
<path d="M376.12 173.19C375.021 173.015 373.898 173.066 372.82 173.34C372.483 173.434 372.181 173.627 371.955 173.895C371.728 174.162 371.587 174.492 371.55 174.84C371.55 174.84 374.72 172.99 376.12 173.19Z" fill="#8F3F22"/>
<path d="M377.76 169.19C378.783 169.87 379.74 170.643 380.62 171.5C381.519 172.343 382.34 173.267 383.07 174.26C383.814 175.252 384.422 176.338 384.88 177.49C385.34 178.639 385.548 179.874 385.49 181.11C385.342 179.911 385.005 178.743 384.49 177.65C383.969 176.567 383.346 175.536 382.63 174.57C381.913 173.597 381.142 172.666 380.32 171.78C379.5 170.89 378.65 170.03 377.76 169.19Z" fill="#8F3F22"/>
<defs>
<linearGradient id="paint0_linear_120_863" x1="274.43" y1="32.09" x2="514.33" y2="447.62" gradientUnits="userSpaceOnUse">
<stop stop-color="#5B3BFB"/>
<stop offset="1" stop-color="#550ECB"/>
</linearGradient>
<linearGradient id="paint1_linear_120_863" x1="538.15" y1="475.99" x2="538.15" y2="330.06" gradientUnits="userSpaceOnUse">
<stop stop-color="#56C482"/>
<stop offset="1" stop-color="#84EFA8"/>
</linearGradient>
<linearGradient id="paint2_linear_120_863" x1="555.07" y1="488.85" x2="635.4" y2="327.66" gradientUnits="userSpaceOnUse">
<stop stop-color="#E5EEFF"/>
<stop offset="1" stop-color="white"/>
</linearGradient>
<linearGradient id="paint3_linear_120_863" x1="545.92" y1="518.05" x2="557.01" y2="495.86" gradientUnits="userSpaceOnUse">
<stop stop-color="#6B9BD9"/>
<stop offset="1" stop-color="#96B8E7"/>
</linearGradient>
<linearGradient id="paint4_linear_120_863" x1="592.19" y1="501.72" x2="517.84" y2="478.92" gradientUnits="userSpaceOnUse">
<stop stop-color="#B3CCF0"/>
<stop offset="1" stop-color="#E5EEFF"/>
</linearGradient>
<linearGradient id="paint5_linear_120_863" x1="20190.3" y1="2360.48" x2="80083.1" y2="2360.48" gradientUnits="userSpaceOnUse">
<stop stop-color="#5B3BFB"/>
<stop offset="1" stop-color="#550ECB"/>
</linearGradient>
<linearGradient id="paint6_linear_120_863" x1="4741.1" y1="27972" x2="36956.2" y2="27073.9" gradientUnits="userSpaceOnUse">
<stop stop-color="#E5EEFF"/>
<stop offset="1" stop-color="white"/>
</linearGradient>
<linearGradient id="paint7_linear_120_863" x1="21749.9" y1="1018.73" x2="56913.6" y2="1018.73" gradientUnits="userSpaceOnUse">
<stop stop-color="#5B3BFB"/>
<stop offset="1" stop-color="#550ECB"/>
</linearGradient>
<linearGradient id="paint8_linear_120_863" x1="20687.1" y1="1112.57" x2="45644.7" y2="1112.57" gradientUnits="userSpaceOnUse">
<stop stop-color="#5B3BFB"/>
<stop offset="1" stop-color="#550ECB"/>
</linearGradient>
<linearGradient id="paint9_linear_120_863" x1="8931.58" y1="1300.25" x2="14785.4" y2="1300.25" gradientUnits="userSpaceOnUse">
<stop stop-color="#5B3BFB"/>
<stop offset="1" stop-color="#550ECB"/>
</linearGradient>
<linearGradient id="paint10_linear_120_863" x1="17918" y1="1485.62" x2="24177.9" y2="1485.62" gradientUnits="userSpaceOnUse">
<stop stop-color="#5B3BFB"/>
<stop offset="1" stop-color="#550ECB"/>
</linearGradient>
<linearGradient id="paint11_linear_120_863" x1="6898.13" y1="42093.8" x2="6898.13" y2="32812.4" gradientUnits="userSpaceOnUse">
<stop stop-color="#56C482"/>
<stop offset="1" stop-color="#84EFA8"/>
</linearGradient>
<linearGradient id="paint12_linear_120_863" x1="53.17" y1="109.82" x2="53.17" y2="13.47" gradientUnits="userSpaceOnUse">
<stop stop-color="#1277F4"/>
<stop offset="1" stop-color="#0B54D7"/>
</linearGradient>
<linearGradient id="paint13_linear_120_863" x1="225.95" y1="94.56" x2="225.95" y2="14.66" gradientUnits="userSpaceOnUse">
<stop stop-color="#FFBC40"/>
<stop offset="1" stop-color="#FFDE5F"/>
</linearGradient>
<linearGradient id="paint14_linear_120_863" x1="37490.7" y1="8563.8" x2="37490.7" y2="998.282" gradientUnits="userSpaceOnUse">
<stop stop-color="#56C482"/>
<stop offset="1" stop-color="#84EFA8"/>
</linearGradient>
<linearGradient id="paint15_linear_120_863" x1="35412.4" y1="5259.98" x2="35412.4" y2="919.144" gradientUnits="userSpaceOnUse">
<stop stop-color="#1277F4"/>
<stop offset="1" stop-color="#0B54D7"/>
</linearGradient>
<linearGradient id="paint16_linear_120_863" x1="317.13" y1="118.53" x2="317.13" y2="52.27" gradientUnits="userSpaceOnUse">
<stop stop-color="#FF6189"/>
<stop offset="1" stop-color="#FF7996"/>
</linearGradient>
<linearGradient id="paint17_linear_120_863" x1="8295.55" y1="23902.8" x2="9519.85" y2="23902.8" gradientUnits="userSpaceOnUse">
<stop stop-color="#6B9BD9"/>
<stop offset="1" stop-color="#96B8E7"/>
</linearGradient>
<linearGradient id="paint18_linear_120_863" x1="24066.4" y1="1966.54" x2="32558" y2="1966.54" gradientUnits="userSpaceOnUse">
<stop stop-color="#6B9BD9"/>
<stop offset="1" stop-color="#96B8E7"/>
</linearGradient>
<linearGradient id="paint19_linear_120_863" x1="303.4" y1="499.43" x2="351.38" y2="488.48" gradientUnits="userSpaceOnUse">
<stop stop-color="#FFA87D"/>
<stop offset="1" stop-color="#FFC0A1"/>
</linearGradient>
<linearGradient id="paint20_linear_120_863" x1="286.92" y1="512.12" x2="338.92" y2="509.24" gradientUnits="userSpaceOnUse">
<stop offset="0.17" stop-color="#B3CCF0"/>
<stop offset="0.68" stop-color="white"/>
</linearGradient>
<linearGradient id="paint21_linear_120_863" x1="36507.1" y1="63259.7" x2="38668.4" y2="64143.5" gradientUnits="userSpaceOnUse">
<stop stop-color="#1277F4"/>
<stop offset="1" stop-color="#0B54D7"/>
</linearGradient>
<linearGradient id="paint22_linear_120_863" x1="50392" y1="67328.2" x2="79052.8" y2="67328.2" gradientUnits="userSpaceOnUse">
<stop stop-color="#1277F4"/>
<stop offset="1" stop-color="#0B54D7"/>
</linearGradient>
<linearGradient id="paint23_linear_120_863" x1="13644.5" y1="6576.13" x2="14137.8" y2="6863.9" gradientUnits="userSpaceOnUse">
<stop stop-color="#FFA87D"/>
<stop offset="1" stop-color="#FFC0A1"/>
</linearGradient>
<linearGradient id="paint24_linear_120_863" x1="41180.2" y1="59630.1" x2="28568.6" y2="53624.1" gradientUnits="userSpaceOnUse">
<stop stop-color="#FFBC40"/>
<stop offset="1" stop-color="#FFDE5F"/>
</linearGradient>
<linearGradient id="paint25_linear_120_863" x1="26553.7" y1="15720.3" x2="24182.1" y2="19844.8" gradientUnits="userSpaceOnUse">
<stop stop-color="#FFBC40"/>
<stop offset="1" stop-color="#FFDE5F"/>
</linearGradient>
<linearGradient id="paint26_linear_120_863" x1="49886.7" y1="17784.5" x2="49772.9" y2="16692.6" gradientUnits="userSpaceOnUse">
<stop stop-color="#FFA87D"/>
<stop offset="1" stop-color="#FFC0A1"/>
</linearGradient>
<linearGradient id="paint27_linear_120_863" x1="37840.1" y1="17573.6" x2="37202" y2="14779.6" gradientUnits="userSpaceOnUse">
<stop stop-color="#FFA87D"/>
<stop offset="1" stop-color="#FFC0A1"/>
</linearGradient>
<linearGradient id="paint28_linear_120_863" x1="275.79" y1="304.13" x2="283.86" y2="304.13" gradientUnits="userSpaceOnUse">
<stop stop-color="#FA8C65"/>
<stop offset="1" stop-color="#FD9F7E"/>
</linearGradient>
<linearGradient id="paint29_linear_120_863" x1="8765.2" y1="12972.1" x2="9381.65" y2="12526" gradientUnits="userSpaceOnUse">
<stop stop-color="#FFA87D"/>
<stop offset="1" stop-color="#FFC0A1"/>
</linearGradient>
<linearGradient id="paint30_linear_120_863" x1="18685.7" y1="14127.3" x2="21769.9" y2="14127.3" gradientUnits="userSpaceOnUse">
<stop stop-color="#E5EEFF"/>
<stop offset="1" stop-color="white"/>
</linearGradient>
<linearGradient id="paint31_linear_120_863" x1="15541.8" y1="61023.4" x2="16513.4" y2="61023.4" gradientUnits="userSpaceOnUse">
<stop stop-color="#6B9BD9"/>
<stop offset="1" stop-color="#96B8E7"/>
</linearGradient>
<linearGradient id="paint32_linear_120_863" x1="26507.7" y1="4024.18" x2="26507.7" y2="3950.22" gradientUnits="userSpaceOnUse">
<stop stop-color="#6B9BD9"/>
<stop offset="1" stop-color="#96B8E7"/>
</linearGradient>
<linearGradient id="paint33_linear_120_863" x1="6287.22" y1="43929.7" x2="6287.22" y2="36535.5" gradientUnits="userSpaceOnUse">
<stop stop-color="#6B9BD9"/>
<stop offset="1" stop-color="#96B8E7"/>
</linearGradient>
<linearGradient id="paint34_linear_120_863" x1="9911.27" y1="8769.56" x2="9911.27" y2="8501.58" gradientUnits="userSpaceOnUse">
<stop stop-color="#6B9BD9"/>
<stop offset="1" stop-color="#96B8E7"/>
</linearGradient>
<linearGradient id="paint35_linear_120_863" x1="6311.66" y1="7020.74" x2="6468.03" y2="7020.74" gradientUnits="userSpaceOnUse">
<stop stop-color="#6B9BD9"/>
<stop offset="1" stop-color="#96B8E7"/>
</linearGradient>
<linearGradient id="paint36_linear_120_863" x1="5586.16" y1="7020.74" x2="5742.41" y2="7020.74" gradientUnits="userSpaceOnUse">
<stop stop-color="#6B9BD9"/>
<stop offset="1" stop-color="#96B8E7"/>
</linearGradient>
<linearGradient id="paint37_linear_120_863" x1="4860.67" y1="7020.74" x2="5016.92" y2="7020.74" gradientUnits="userSpaceOnUse">
<stop stop-color="#6B9BD9"/>
<stop offset="1" stop-color="#96B8E7"/>
</linearGradient>
<linearGradient id="paint38_linear_120_863" x1="57118" y1="4922.14" x2="57118" y2="4726.14" gradientUnits="userSpaceOnUse">
<stop stop-color="#E5EEFF"/>
<stop offset="1" stop-color="white"/>
</linearGradient>
<linearGradient id="paint39_linear_120_863" x1="4808.26" y1="104534" x2="4808.26" y2="65440.6" gradientUnits="userSpaceOnUse">
<stop stop-color="#6B9BD9"/>
<stop offset="1" stop-color="#96B8E7"/>
</linearGradient>
<linearGradient id="paint40_linear_120_863" x1="-50278.1" y1="104534" x2="-50278.1" y2="65440.6" gradientUnits="userSpaceOnUse">
<stop stop-color="#6B9BD9"/>
<stop offset="1" stop-color="#96B8E7"/>
</linearGradient>
<linearGradient id="paint41_linear_120_863" x1="42806" y1="4885.85" x2="56492.7" y2="4885.85" gradientUnits="userSpaceOnUse">
<stop stop-color="#E5EEFF"/>
<stop offset="1" stop-color="white"/>
</linearGradient>
<linearGradient id="paint42_linear_120_863" x1="51245.2" y1="10425.8" x2="72610.9" y2="10425.8" gradientUnits="userSpaceOnUse">
<stop stop-color="#E5EEFF"/>
<stop offset="1" stop-color="white"/>
</linearGradient>
<linearGradient id="paint43_linear_120_863" x1="11823.5" y1="36707.3" x2="12648" y2="36708.3" gradientUnits="userSpaceOnUse">
<stop stop-color="#E5EEFF"/>
<stop offset="1" stop-color="white"/>
</linearGradient>
<linearGradient id="paint44_linear_120_863" x1="11345.4" y1="11225.9" x2="11823.3" y2="11225.9" gradientUnits="userSpaceOnUse">
<stop stop-color="#E5EEFF"/>
<stop offset="1" stop-color="white"/>
</linearGradient>
<linearGradient id="paint45_linear_120_863" x1="18177.8" y1="6099.56" x2="20406" y2="9356.71" gradientUnits="userSpaceOnUse">
<stop stop-color="#FFA87D"/>
<stop offset="1" stop-color="#FFC0A1"/>
</linearGradient>
<linearGradient id="paint46_linear_120_863" x1="401.51" y1="154.53" x2="404.37" y2="154.53" gradientUnits="userSpaceOnUse">
<stop stop-color="#FF9C6B"/>
<stop offset="1" stop-color="#FFB48F"/>
</linearGradient>
<linearGradient id="paint47_linear_120_863" x1="2615.88" y1="2404.03" x2="2565.57" y2="2292.29" gradientUnits="userSpaceOnUse">
<stop stop-color="#FF9C6B"/>
<stop offset="1" stop-color="#FFB48F"/>
</linearGradient>
<linearGradient id="paint48_linear_120_863" x1="3301.97" y1="580.844" x2="3301.66" y2="576.242" gradientUnits="userSpaceOnUse">
<stop stop-color="#E5EEFF"/>
<stop offset="1" stop-color="white"/>
</linearGradient>
<linearGradient id="paint49_linear_120_863" x1="1978.89" y1="485.772" x2="1978.62" y2="482.853" gradientUnits="userSpaceOnUse">
<stop stop-color="#E5EEFF"/>
<stop offset="1" stop-color="white"/>
</linearGradient>
</defs>
</svg>
