<svg width="587" height="1155" viewBox="0 0 587 1155" fill="none" xmlns="http://www.w3.org/2000/svg">
<g opacity="0.8">
<rect x="-42.6348" y="-115" width="819.268" height="819.268" rx="40" transform="rotate(46.1041 -42.6348 -115)" fill="url(#paint0_linear_102_16)"/>
<circle cx="206.001" cy="279" r="10" fill="white"/>
<circle cx="206.001" cy="307" r="10" fill="white"/>
<circle cx="206.001" cy="335" r="10" fill="white"/>
<circle cx="206.001" cy="363" r="10" fill="white"/>
<circle cx="206.001" cy="391" r="10" fill="white"/>
<circle cx="206.001" cy="419" r="10" fill="white"/>
<circle cx="206.001" cy="447" r="10" fill="white"/>
<circle cx="206.001" cy="475" r="10" fill="white"/>
<circle cx="206.001" cy="503" r="10" fill="white"/>
<circle cx="206.001" cy="-9" r="10" fill="white"/>
<circle cx="206.001" cy="23" r="10" fill="white"/>
<circle cx="206.001" cy="55" r="10" fill="white"/>
<circle cx="206.001" cy="87" r="10" fill="white"/>
<circle cx="206.001" cy="119" r="10" fill="white"/>
<circle cx="206.001" cy="151" r="10" fill="white"/>
<circle cx="206.001" cy="183" r="10" fill="white"/>
<circle cx="206.001" cy="215" r="10" fill="white"/>
<circle cx="206.001" cy="247" r="10" fill="white"/>
<circle cx="-1.99854" cy="279" r="10" fill="white"/>
<circle cx="50.0015" cy="279" r="10" fill="white"/>
<circle cx="102.001" cy="279" r="10" fill="white"/>
<circle cx="154.001" cy="279" r="10" fill="white"/>
<circle cx="-1.99854" cy="307" r="10" fill="white"/>
<circle cx="50.0015" cy="307" r="10" fill="white"/>
<circle cx="102.001" cy="307" r="10" fill="white"/>
<circle cx="154.001" cy="307" r="10" fill="white"/>
<circle cx="-1.99854" cy="335" r="10" fill="white"/>
<circle cx="50.0015" cy="335" r="10" fill="white"/>
<circle cx="102.001" cy="335" r="10" fill="white"/>
<circle cx="154.001" cy="335" r="10" fill="white"/>
<circle cx="-1.99854" cy="363" r="10" fill="white"/>
<circle cx="50.0015" cy="363" r="10" fill="white"/>
<circle cx="102.001" cy="363" r="10" fill="white"/>
<circle cx="154.001" cy="363" r="10" fill="white"/>
<circle cx="-1.99854" cy="391" r="10" fill="white"/>
<circle cx="50.0015" cy="391" r="10" fill="white"/>
<circle cx="102.001" cy="391" r="10" fill="white"/>
<circle cx="154.001" cy="391" r="10" fill="white"/>
<circle cx="-1.99854" cy="419" r="10" fill="white"/>
<circle cx="50.0015" cy="419" r="10" fill="white"/>
<circle cx="102.001" cy="419" r="10" fill="white"/>
<circle cx="154.001" cy="419" r="10" fill="white"/>
<circle cx="-1.99854" cy="447" r="10" fill="white"/>
<circle cx="50.0015" cy="447" r="10" fill="white"/>
<circle cx="102.001" cy="447" r="10" fill="white"/>
<circle cx="154.001" cy="447" r="10" fill="white"/>
<circle cx="-1.99854" cy="475" r="10" fill="white"/>
<circle cx="50.0015" cy="475" r="10" fill="white"/>
<circle cx="102.001" cy="475" r="10" fill="white"/>
<circle cx="154.001" cy="475" r="10" fill="white"/>
<circle cx="-1.99854" cy="503" r="10" fill="white"/>
<circle cx="50.0015" cy="503" r="10" fill="white"/>
<circle cx="102.001" cy="503" r="10" fill="white"/>
<circle cx="154.001" cy="503" r="10" fill="white"/>
<circle cx="-1.99854" cy="-9" r="10" fill="white"/>
<circle cx="50.0015" cy="-9" r="10" fill="white"/>
<circle cx="-1.99854" cy="23" r="10" fill="white"/>
<circle cx="50.0015" cy="23" r="10" fill="white"/>
<circle cx="-1.99854" cy="55" r="10" fill="white"/>
<circle cx="50.0015" cy="55" r="10" fill="white"/>
<circle cx="-1.99854" cy="87" r="10" fill="white"/>
<circle cx="50.0015" cy="87" r="10" fill="white"/>
<circle cx="-1.99854" cy="119" r="10" fill="white"/>
<circle cx="50.0015" cy="119" r="10" fill="white"/>
<circle cx="102.001" cy="-9" r="10" fill="white"/>
<circle cx="102.001" cy="23" r="10" fill="white"/>
<circle cx="102.001" cy="55" r="10" fill="white"/>
<circle cx="102.001" cy="87" r="10" fill="white"/>
<circle cx="102.001" cy="119" r="10" fill="white"/>
<circle cx="154.001" cy="-9" r="10" fill="white"/>
<circle cx="154.001" cy="23" r="10" fill="white"/>
<circle cx="154.001" cy="55" r="10" fill="white"/>
<circle cx="154.001" cy="87" r="10" fill="white"/>
<circle cx="154.001" cy="119" r="10" fill="white"/>
<circle cx="-1.99854" cy="151" r="10" fill="white"/>
<circle cx="50.0015" cy="151" r="10" fill="white"/>
<circle cx="102.001" cy="151" r="10" fill="white"/>
<circle cx="154.001" cy="151" r="10" fill="white"/>
<circle cx="-1.99854" cy="183" r="10" fill="white"/>
<circle cx="50.0015" cy="183" r="10" fill="white"/>
<circle cx="102.001" cy="183" r="10" fill="white"/>
<circle cx="154.001" cy="183" r="10" fill="white"/>
<circle cx="-1.99854" cy="215" r="10" fill="white"/>
<circle cx="50.0015" cy="215" r="10" fill="white"/>
<circle cx="102.001" cy="215" r="10" fill="white"/>
<circle cx="154.001" cy="215" r="10" fill="white"/>
<circle cx="-1.99854" cy="247" r="10" fill="white"/>
<circle cx="50.0015" cy="247" r="10" fill="white"/>
<circle cx="102.001" cy="247" r="10" fill="white"/>
<circle cx="154.001" cy="247" r="10" fill="white"/>
<circle cx="206.001" cy="921" r="10" fill="white"/>
<circle cx="206.001" cy="949" r="10" fill="white"/>
<circle cx="206.001" cy="977" r="10" fill="white"/>
<circle cx="206.001" cy="1005" r="10" fill="white"/>
<circle cx="206.001" cy="1033" r="10" fill="white"/>
<circle cx="206.001" cy="1061" r="10" fill="white"/>
<circle cx="206.001" cy="1089" r="10" fill="white"/>
<circle cx="206.001" cy="1117" r="10" fill="white"/>
<circle cx="206.001" cy="1145" r="10" fill="white"/>
<circle cx="206.001" cy="537" r="10" fill="white"/>
<circle cx="206.001" cy="569" r="10" fill="white"/>
<circle cx="206.001" cy="601" r="10" fill="white"/>
<circle cx="206.001" cy="633" r="10" fill="white"/>
<circle cx="206.001" cy="665" r="10" fill="white"/>
<circle cx="206.001" cy="697" r="10" fill="white"/>
<circle cx="206.001" cy="729" r="10" fill="white"/>
<circle cx="206.001" cy="761" r="10" fill="white"/>
<circle cx="206.001" cy="793" r="10" fill="white"/>
<circle cx="206.001" cy="825" r="10" fill="white"/>
<circle cx="206.001" cy="857" r="10" fill="white"/>
<circle cx="206.001" cy="889" r="10" fill="white"/>
<circle cx="-1.99854" cy="921" r="10" fill="white"/>
<circle cx="50.0015" cy="921" r="10" fill="white"/>
<circle cx="102.001" cy="921" r="10" fill="white"/>
<circle cx="154.001" cy="921" r="10" fill="white"/>
<circle cx="-1.99854" cy="949" r="10" fill="white"/>
<circle cx="50.0015" cy="949" r="10" fill="white"/>
<circle cx="102.001" cy="949" r="10" fill="white"/>
<circle cx="154.001" cy="949" r="10" fill="white"/>
<circle cx="-1.99854" cy="977" r="10" fill="white"/>
<circle cx="50.0015" cy="977" r="10" fill="white"/>
<circle cx="102.001" cy="977" r="10" fill="white"/>
<circle cx="154.001" cy="977" r="10" fill="white"/>
<circle cx="-1.99854" cy="1005" r="10" fill="white"/>
<circle cx="50.0015" cy="1005" r="10" fill="white"/>
<circle cx="102.001" cy="1005" r="10" fill="white"/>
<circle cx="154.001" cy="1005" r="10" fill="white"/>
<circle cx="-1.99854" cy="1033" r="10" fill="white"/>
<circle cx="50.0015" cy="1033" r="10" fill="white"/>
<circle cx="102.001" cy="1033" r="10" fill="white"/>
<circle cx="154.001" cy="1033" r="10" fill="white"/>
<circle cx="-1.99854" cy="1061" r="10" fill="white"/>
<circle cx="50.0015" cy="1061" r="10" fill="white"/>
<circle cx="102.001" cy="1061" r="10" fill="white"/>
<circle cx="154.001" cy="1061" r="10" fill="white"/>
<circle cx="-1.99854" cy="1089" r="10" fill="white"/>
<circle cx="50.0015" cy="1089" r="10" fill="white"/>
<circle cx="102.001" cy="1089" r="10" fill="white"/>
<circle cx="154.001" cy="1089" r="10" fill="white"/>
<circle cx="-1.99854" cy="1117" r="10" fill="white"/>
<circle cx="50.0015" cy="1117" r="10" fill="white"/>
<circle cx="102.001" cy="1117" r="10" fill="white"/>
<circle cx="154.001" cy="1117" r="10" fill="white"/>
<circle cx="-1.99854" cy="1145" r="10" fill="white"/>
<circle cx="50.0015" cy="1145" r="10" fill="white"/>
<circle cx="102.001" cy="1145" r="10" fill="white"/>
<circle cx="154.001" cy="1145" r="10" fill="white"/>
<circle cx="-1.99854" cy="537" r="10" fill="white"/>
<circle cx="50.0015" cy="537" r="10" fill="white"/>
<circle cx="-1.99854" cy="569" r="10" fill="white"/>
<circle cx="50.0015" cy="569" r="10" fill="white"/>
<circle cx="-1.99854" cy="601" r="10" fill="white"/>
<circle cx="50.0015" cy="601" r="10" fill="white"/>
<circle cx="-1.99854" cy="633" r="10" fill="white"/>
<circle cx="50.0015" cy="633" r="10" fill="white"/>
<circle cx="-1.99854" cy="665" r="10" fill="white"/>
<circle cx="50.0015" cy="665" r="10" fill="white"/>
<circle cx="-1.99854" cy="697" r="10" fill="white"/>
<circle cx="50.0015" cy="697" r="10" fill="white"/>
<circle cx="-1.99854" cy="729" r="10" fill="white"/>
<circle cx="50.0015" cy="729" r="10" fill="white"/>
<circle cx="-1.99854" cy="761" r="10" fill="white"/>
<circle cx="50.0015" cy="761" r="10" fill="white"/>
<circle cx="102.001" cy="537" r="10" fill="white"/>
<circle cx="102.001" cy="569" r="10" fill="white"/>
<circle cx="102.001" cy="601" r="10" fill="white"/>
<circle cx="102.001" cy="633" r="10" fill="white"/>
<circle cx="102.001" cy="665" r="10" fill="white"/>
<circle cx="102.001" cy="697" r="10" fill="white"/>
<circle cx="102.001" cy="729" r="10" fill="white"/>
<circle cx="102.001" cy="761" r="10" fill="white"/>
<circle cx="154.001" cy="537" r="10" fill="white"/>
<circle cx="154.001" cy="569" r="10" fill="white"/>
<circle cx="154.001" cy="601" r="10" fill="white"/>
<circle cx="154.001" cy="633" r="10" fill="white"/>
<circle cx="154.001" cy="665" r="10" fill="white"/>
<circle cx="154.001" cy="697" r="10" fill="white"/>
<circle cx="154.001" cy="729" r="10" fill="white"/>
<circle cx="154.001" cy="761" r="10" fill="white"/>
<circle cx="-1.99854" cy="793" r="10" fill="white"/>
<circle cx="50.0015" cy="793" r="10" fill="white"/>
<circle cx="102.001" cy="793" r="10" fill="white"/>
<circle cx="154.001" cy="793" r="10" fill="white"/>
<circle cx="-1.99854" cy="825" r="10" fill="white"/>
<circle cx="50.0015" cy="825" r="10" fill="white"/>
<circle cx="102.001" cy="825" r="10" fill="white"/>
<circle cx="154.001" cy="825" r="10" fill="white"/>
<circle cx="-1.99854" cy="857" r="10" fill="white"/>
<circle cx="50.0015" cy="857" r="10" fill="white"/>
<circle cx="102.001" cy="857" r="10" fill="white"/>
<circle cx="154.001" cy="857" r="10" fill="white"/>
<circle cx="-1.99854" cy="889" r="10" fill="white"/>
<circle cx="50.0015" cy="889" r="10" fill="white"/>
<circle cx="102.001" cy="889" r="10" fill="white"/>
<circle cx="154.001" cy="889" r="10" fill="white"/>
<circle cx="577" cy="599" r="10" fill="white"/>
<circle cx="577" cy="627" r="10" fill="white"/>
<circle cx="577" cy="655" r="10" fill="white"/>
<circle cx="577" cy="683" r="10" fill="white"/>
<circle cx="577" cy="711" r="10" fill="white"/>
<circle cx="577" cy="739" r="10" fill="white"/>
<circle cx="577" cy="767" r="10" fill="white"/>
<circle cx="577" cy="795" r="10" fill="white"/>
<circle cx="577" cy="823" r="10" fill="white"/>
<circle cx="577" cy="215" r="10" fill="white"/>
<circle cx="577" cy="247" r="10" fill="white"/>
<circle cx="577" cy="279" r="10" fill="white"/>
<circle cx="577" cy="311" r="10" fill="white"/>
<circle cx="577" cy="343" r="10" fill="white"/>
<circle cx="577" cy="375" r="10" fill="white"/>
<circle cx="577" cy="407" r="10" fill="white"/>
<circle cx="577" cy="439" r="10" fill="white"/>
<circle cx="577" cy="471" r="10" fill="white"/>
<circle cx="577" cy="503" r="10" fill="white"/>
<circle cx="577" cy="535" r="10" fill="white"/>
<circle cx="577" cy="567" r="10" fill="white"/>
<circle cx="369" cy="599" r="10" fill="white"/>
<circle cx="421" cy="599" r="10" fill="white"/>
<circle cx="473" cy="599" r="10" fill="white"/>
<circle cx="525" cy="599" r="10" fill="white"/>
<circle cx="369" cy="627" r="10" fill="white"/>
<circle cx="421" cy="627" r="10" fill="white"/>
<circle cx="473" cy="627" r="10" fill="white"/>
<circle cx="525" cy="627" r="10" fill="white"/>
<circle cx="369" cy="655" r="10" fill="white"/>
<circle cx="421" cy="655" r="10" fill="white"/>
<circle cx="473" cy="655" r="10" fill="white"/>
<circle cx="525" cy="655" r="10" fill="white"/>
<circle cx="369" cy="683" r="10" fill="white"/>
<circle cx="421" cy="683" r="10" fill="white"/>
<circle cx="473" cy="683" r="10" fill="white"/>
<circle cx="525" cy="683" r="10" fill="white"/>
<circle cx="369" cy="711" r="10" fill="white"/>
<circle cx="421" cy="711" r="10" fill="white"/>
<circle cx="473" cy="711" r="10" fill="white"/>
<circle cx="525" cy="711" r="10" fill="white"/>
<circle cx="369" cy="739" r="10" fill="white"/>
<circle cx="421" cy="739" r="10" fill="white"/>
<circle cx="473" cy="739" r="10" fill="white"/>
<circle cx="525" cy="739" r="10" fill="white"/>
<circle cx="369" cy="767" r="10" fill="white"/>
<circle cx="421" cy="767" r="10" fill="white"/>
<circle cx="473" cy="767" r="10" fill="white"/>
<circle cx="525" cy="767" r="10" fill="white"/>
<circle cx="369" cy="795" r="10" fill="white"/>
<circle cx="421" cy="795" r="10" fill="white"/>
<circle cx="473" cy="795" r="10" fill="white"/>
<circle cx="525" cy="795" r="10" fill="white"/>
<circle cx="369" cy="823" r="10" fill="white"/>
<circle cx="421" cy="823" r="10" fill="white"/>
<circle cx="473" cy="823" r="10" fill="white"/>
<circle cx="525" cy="823" r="10" fill="white"/>
<circle cx="265" cy="215" r="10" fill="white"/>
<circle cx="317" cy="215" r="10" fill="white"/>
<circle cx="369" cy="215" r="10" fill="white"/>
<circle cx="421" cy="215" r="10" fill="white"/>
<circle cx="265" cy="247" r="10" fill="white"/>
<circle cx="317" cy="247" r="10" fill="white"/>
<circle cx="369" cy="247" r="10" fill="white"/>
<circle cx="421" cy="247" r="10" fill="white"/>
<circle cx="265" cy="279" r="10" fill="white"/>
<circle cx="317" cy="279" r="10" fill="white"/>
<circle cx="369" cy="279" r="10" fill="white"/>
<circle cx="421" cy="279" r="10" fill="white"/>
<circle cx="265" cy="311" r="10" fill="white"/>
<circle cx="317" cy="311" r="10" fill="white"/>
<circle cx="369" cy="311" r="10" fill="white"/>
<circle cx="421" cy="311" r="10" fill="white"/>
<circle cx="265" cy="343" r="10" fill="white"/>
<circle cx="317" cy="343" r="10" fill="white"/>
<circle cx="369" cy="343" r="10" fill="white"/>
<circle cx="421" cy="343" r="10" fill="white"/>
<circle cx="265" cy="375" r="10" fill="white"/>
<circle cx="317" cy="375" r="10" fill="white"/>
<circle cx="369" cy="375" r="10" fill="white"/>
<circle cx="421" cy="375" r="10" fill="white"/>
<circle cx="265" cy="407" r="10" fill="white"/>
<circle cx="317" cy="407" r="10" fill="white"/>
<circle cx="369" cy="407" r="10" fill="white"/>
<circle cx="421" cy="407" r="10" fill="white"/>
<circle cx="265" cy="439" r="10" fill="white"/>
<circle cx="317" cy="439" r="10" fill="white"/>
<circle cx="369" cy="439" r="10" fill="white"/>
<circle cx="421" cy="439" r="10" fill="white"/>
<circle cx="473" cy="215" r="10" fill="white"/>
<circle cx="473" cy="247" r="10" fill="white"/>
<circle cx="473" cy="279" r="10" fill="white"/>
<circle cx="473" cy="311" r="10" fill="white"/>
<circle cx="473" cy="343" r="10" fill="white"/>
<circle cx="473" cy="375" r="10" fill="white"/>
<circle cx="473" cy="407" r="10" fill="white"/>
<circle cx="473" cy="439" r="10" fill="white"/>
<circle cx="525" cy="215" r="10" fill="white"/>
<circle cx="525" cy="247" r="10" fill="white"/>
<circle cx="525" cy="279" r="10" fill="white"/>
<circle cx="525" cy="311" r="10" fill="white"/>
<circle cx="525" cy="343" r="10" fill="white"/>
<circle cx="525" cy="375" r="10" fill="white"/>
<circle cx="525" cy="407" r="10" fill="white"/>
<circle cx="525" cy="439" r="10" fill="white"/>
<circle cx="265" cy="471" r="10" fill="white"/>
<circle cx="317" cy="471" r="10" fill="white"/>
<circle cx="369" cy="471" r="10" fill="white"/>
<circle cx="421" cy="471" r="10" fill="white"/>
<circle cx="473" cy="471" r="10" fill="white"/>
<circle cx="525" cy="471" r="10" fill="white"/>
<circle cx="265" cy="503" r="10" fill="white"/>
<circle cx="317" cy="503" r="10" fill="white"/>
<circle cx="369" cy="503" r="10" fill="white"/>
<circle cx="421" cy="503" r="10" fill="white"/>
<circle cx="473" cy="503" r="10" fill="white"/>
<circle cx="525" cy="503" r="10" fill="white"/>
<circle cx="265" cy="535" r="10" fill="white"/>
<circle cx="317" cy="535" r="10" fill="white"/>
<circle cx="369" cy="535" r="10" fill="white"/>
<circle cx="421" cy="535" r="10" fill="white"/>
<circle cx="473" cy="535" r="10" fill="white"/>
<circle cx="525" cy="535" r="10" fill="white"/>
<circle cx="265" cy="567" r="10" fill="white"/>
<circle cx="317" cy="567" r="10" fill="white"/>
<circle cx="369" cy="567" r="10" fill="white"/>
<circle cx="421" cy="567" r="10" fill="white"/>
<circle cx="473" cy="567" r="10" fill="white"/>
<circle cx="525" cy="567" r="10" fill="white"/>
</g>
<defs>
<linearGradient id="paint0_linear_102_16" x1="650.288" y1="-112.815" x2="366.999" y2="704.268" gradientUnits="userSpaceOnUse">
<stop stop-color="#F8F9FA"/>
<stop offset="1" stop-color="white"/>
</linearGradient>
</defs>
</svg>
