<svg width="116" height="33" viewBox="0 0 116 33" fill="none" xmlns="http://www.w3.org/2000/svg">
<path d="M3.772 9.986C3.39067 9.986 3.068 9.854 2.804 9.59C2.55467 9.326 2.43 9.00333 2.43 8.622C2.43 8.24067 2.55467 7.918 2.804 7.654C3.068 7.39 3.39067 7.258 3.772 7.258C4.15333 7.258 4.46867 7.39 4.718 7.654C4.982 7.918 5.114 8.24067 5.114 8.622C5.114 9.00333 4.982 9.326 4.718 9.59C4.46867 9.854 4.15333 9.986 3.772 9.986ZM4.762 26.618C4.762 27.6887 4.49067 28.4733 3.948 28.972C3.40533 29.4707 2.61333 29.72 1.572 29.72H0.406V28.026H1.242C1.79933 28.026 2.188 27.916 2.408 27.696C2.64267 27.476 2.76 27.102 2.76 26.574V11.944H4.762V26.618ZM13.409 24.198C12.2797 24.198 11.253 23.9413 10.329 23.428C9.4197 22.9147 8.70103 22.1887 8.17303 21.25C7.6597 20.2967 7.40303 19.1967 7.40303 17.95C7.40303 16.718 7.66703 15.6327 8.19503 14.694C8.7377 13.7407 9.47103 13.0147 10.395 12.516C11.319 12.0027 12.353 11.746 13.497 11.746C14.641 11.746 15.675 12.0027 16.599 12.516C17.523 13.0147 18.249 13.7333 18.777 14.672C19.3197 15.6107 19.591 16.7033 19.591 17.95C19.591 19.1967 19.3124 20.2967 18.755 21.25C18.2124 22.1887 17.4717 22.9147 16.533 23.428C15.5944 23.9413 14.553 24.198 13.409 24.198ZM13.409 22.438C14.1277 22.438 14.8024 22.2693 15.433 21.932C16.0637 21.5947 16.5697 21.0887 16.951 20.414C17.347 19.7393 17.545 18.918 17.545 17.95C17.545 16.982 17.3544 16.1607 16.973 15.486C16.5917 14.8113 16.093 14.3127 15.477 13.99C14.861 13.6527 14.1937 13.484 13.475 13.484C12.7417 13.484 12.067 13.6527 11.451 13.99C10.8497 14.3127 10.3657 14.8113 9.99903 15.486C9.63236 16.1607 9.44903 16.982 9.44903 17.95C9.44903 18.9327 9.62503 19.7613 9.97703 20.436C10.3437 21.1107 10.8277 21.6167 11.429 21.954C12.0304 22.2767 12.6904 22.438 13.409 22.438ZM24.2253 14.188C24.636 13.4693 25.2373 12.8827 26.0293 12.428C26.8213 11.9733 27.7233 11.746 28.7353 11.746C29.8206 11.746 30.796 12.0027 31.6613 12.516C32.5266 13.0293 33.2086 13.7553 33.7073 14.694C34.206 15.618 34.4553 16.696 34.4553 17.928C34.4553 19.1453 34.206 20.2307 33.7073 21.184C33.2086 22.1373 32.5193 22.878 31.6393 23.406C30.774 23.934 29.806 24.198 28.7353 24.198C27.694 24.198 26.7773 23.9707 25.9853 23.516C25.208 23.0613 24.6213 22.482 24.2253 21.778V24H22.2233V7.72H24.2253V14.188ZM32.4093 17.928C32.4093 17.0187 32.226 16.2267 31.8593 15.552C31.4926 14.8773 30.994 14.364 30.3633 14.012C29.7473 13.66 29.0653 13.484 28.3173 13.484C27.584 13.484 26.902 13.6673 26.2713 14.034C25.6553 14.386 25.1566 14.9067 24.7753 15.596C24.4086 16.2707 24.2253 17.0553 24.2253 17.95C24.2253 18.8593 24.4086 19.6587 24.7753 20.348C25.1566 21.0227 25.6553 21.5433 26.2713 21.91C26.902 22.262 27.584 22.438 28.3173 22.438C29.0653 22.438 29.7473 22.262 30.3633 21.91C30.994 21.5433 31.4926 21.0227 31.8593 20.348C32.226 19.6587 32.4093 18.852 32.4093 17.928ZM39.0925 13.902C39.4445 13.2127 39.9432 12.6773 40.5885 12.296C41.2485 11.9147 42.0478 11.724 42.9865 11.724V13.792H42.4585C40.2145 13.792 39.0925 15.0093 39.0925 17.444V24H37.0905V11.944H39.0925V13.902ZM56.2975 17.51C56.2975 17.8913 56.2755 18.2947 56.2315 18.72H46.5955C46.6688 19.908 47.0722 20.8393 47.8055 21.514C48.5535 22.174 49.4555 22.504 50.5115 22.504C51.3768 22.504 52.0955 22.306 52.6675 21.91C53.2542 21.4993 53.6648 20.9567 53.8995 20.282H56.0555C55.7328 21.4407 55.0875 22.3867 54.1195 23.12C53.1515 23.8387 51.9488 24.198 50.5115 24.198C49.3675 24.198 48.3408 23.9413 47.4315 23.428C46.5368 22.9147 45.8328 22.1887 45.3195 21.25C44.8062 20.2967 44.5495 19.1967 44.5495 17.95C44.5495 16.7033 44.7988 15.6107 45.2975 14.672C45.7962 13.7333 46.4928 13.0147 47.3875 12.516C48.2968 12.0027 49.3382 11.746 50.5115 11.746C51.6555 11.746 52.6675 11.9953 53.5475 12.494C54.4275 12.9927 55.1022 13.682 55.5715 14.562C56.0555 15.4273 56.2975 16.41 56.2975 17.51ZM54.2295 17.092C54.2295 16.3293 54.0608 15.6767 53.7235 15.134C53.3862 14.5767 52.9242 14.1587 52.3375 13.88C51.7655 13.5867 51.1275 13.44 50.4235 13.44C49.4115 13.44 48.5462 13.7627 47.8275 14.408C47.1235 15.0533 46.7202 15.948 46.6175 17.092H54.2295ZM73.4381 11.724C74.3768 11.724 75.2128 11.922 75.9461 12.318C76.6794 12.6993 77.2588 13.2787 77.6841 14.056C78.1094 14.8333 78.3221 15.7793 78.3221 16.894V24H76.3421V17.18C76.3421 15.9773 76.0414 15.0607 75.4401 14.43C74.8534 13.7847 74.0541 13.462 73.0421 13.462C72.0008 13.462 71.1721 13.7993 70.5561 14.474C69.9401 15.134 69.6321 16.0947 69.6321 17.356V24H67.6521V17.18C67.6521 15.9773 67.3514 15.0607 66.7501 14.43C66.1634 13.7847 65.3641 13.462 64.3521 13.462C63.3108 13.462 62.4821 13.7993 61.8661 14.474C61.2501 15.134 60.9421 16.0947 60.9421 17.356V24H58.9401V11.944H60.9421V13.682C61.3381 13.0513 61.8661 12.5673 62.5261 12.23C63.2008 11.8927 63.9414 11.724 64.7481 11.724C65.7601 11.724 66.6548 11.9513 67.4321 12.406C68.2094 12.8607 68.7888 13.528 69.1701 14.408C69.5074 13.5573 70.0648 12.8973 70.8421 12.428C71.6194 11.9587 72.4848 11.724 73.4381 11.724ZM86.8641 24.198C85.7348 24.198 84.7081 23.9413 83.7841 23.428C82.8748 22.9147 82.1561 22.1887 81.6281 21.25C81.1148 20.2967 80.8581 19.1967 80.8581 17.95C80.8581 16.718 81.1221 15.6327 81.6501 14.694C82.1928 13.7407 82.9261 13.0147 83.8501 12.516C84.7741 12.0027 85.8081 11.746 86.9521 11.746C88.0961 11.746 89.1301 12.0027 90.0541 12.516C90.9781 13.0147 91.7041 13.7333 92.2321 14.672C92.7748 15.6107 93.0461 16.7033 93.0461 17.95C93.0461 19.1967 92.7674 20.2967 92.2101 21.25C91.6674 22.1887 90.9268 22.9147 89.9881 23.428C89.0494 23.9413 88.0081 24.198 86.8641 24.198ZM86.8641 22.438C87.5828 22.438 88.2574 22.2693 88.8881 21.932C89.5188 21.5947 90.0248 21.0887 90.4061 20.414C90.8021 19.7393 91.0001 18.918 91.0001 17.95C91.0001 16.982 90.8094 16.1607 90.4281 15.486C90.0468 14.8113 89.5481 14.3127 88.9321 13.99C88.3161 13.6527 87.6488 13.484 86.9301 13.484C86.1968 13.484 85.5221 13.6527 84.9061 13.99C84.3048 14.3127 83.8208 14.8113 83.4541 15.486C83.0874 16.1607 82.9041 16.982 82.9041 17.95C82.9041 18.9327 83.0801 19.7613 83.4321 20.436C83.7988 21.1107 84.2828 21.6167 84.8841 21.954C85.4854 22.2767 86.1454 22.438 86.8641 22.438ZM98.1204 13.594V20.7C98.1204 21.2867 98.245 21.7047 98.4944 21.954C98.7437 22.1887 99.1764 22.306 99.7924 22.306H101.266V24H99.4624C98.3477 24 97.5117 23.7433 96.9544 23.23C96.397 22.7167 96.1184 21.8733 96.1184 20.7V13.594H94.5564V11.944H96.1184V8.908H98.1204V11.944H101.266V13.594H98.1204ZM114.692 17.51C114.692 17.8913 114.67 18.2947 114.626 18.72H104.99C105.063 19.908 105.467 20.8393 106.2 21.514C106.948 22.174 107.85 22.504 108.906 22.504C109.771 22.504 110.49 22.306 111.062 21.91C111.649 21.4993 112.059 20.9567 112.294 20.282H114.45C114.127 21.4407 113.482 22.3867 112.514 23.12C111.546 23.8387 110.343 24.198 108.906 24.198C107.762 24.198 106.735 23.9413 105.826 23.428C104.931 22.9147 104.227 22.1887 103.714 21.25C103.201 20.2967 102.944 19.1967 102.944 17.95C102.944 16.7033 103.193 15.6107 103.692 14.672C104.191 13.7333 104.887 13.0147 105.782 12.516C106.691 12.0027 107.733 11.746 108.906 11.746C110.05 11.746 111.062 11.9953 111.942 12.494C112.822 12.9927 113.497 13.682 113.966 14.562C114.45 15.4273 114.692 16.41 114.692 17.51ZM112.624 17.092C112.624 16.3293 112.455 15.6767 112.118 15.134C111.781 14.5767 111.319 14.1587 110.732 13.88C110.16 13.5867 109.522 13.44 108.818 13.44C107.806 13.44 106.941 13.7627 106.222 14.408C105.518 15.0533 105.115 15.948 105.012 17.092H112.624Z" fill="#3C4044"/>
<path d="M37.5 8H55" stroke="#3C4044" stroke-width="2" stroke-linecap="round"/>
</svg>
