<svg width="146" height="36" viewBox="0 0 146 36" fill="none" xmlns="http://www.w3.org/2000/svg">
<path d="M56.328 14.576C56.328 15.552 56.104 16.448 55.656 17.264C55.208 18.064 54.52 18.712 53.592 19.208C52.664 19.704 51.512 19.952 50.136 19.952H47.592V26H43.488V9.152H50.136C51.48 9.152 52.616 9.384 53.544 9.848C54.472 10.312 55.168 10.952 55.632 11.768C56.096 12.584 56.328 13.52 56.328 14.576ZM49.824 16.688C50.608 16.688 51.192 16.504 51.576 16.136C51.96 15.768 52.152 15.248 52.152 14.576C52.152 13.904 51.96 13.384 51.576 13.016C51.192 12.648 50.608 12.464 49.824 12.464H47.592V16.688H49.824ZM64.5606 26.192C63.2486 26.192 62.0646 25.912 61.0086 25.352C59.9686 24.792 59.1446 23.992 58.5366 22.952C57.9446 21.912 57.6486 20.696 57.6486 19.304C57.6486 17.928 57.9526 16.72 58.5606 15.68C59.1686 14.624 60.0006 13.816 61.0566 13.256C62.1126 12.696 63.2966 12.416 64.6086 12.416C65.9206 12.416 67.1046 12.696 68.1606 13.256C69.2166 13.816 70.0486 14.624 70.6566 15.68C71.2646 16.72 71.5686 17.928 71.5686 19.304C71.5686 20.68 71.2566 21.896 70.6326 22.952C70.0246 23.992 69.1846 24.792 68.1126 25.352C67.0566 25.912 65.8726 26.192 64.5606 26.192ZM64.5606 22.64C65.3446 22.64 66.0086 22.352 66.5526 21.776C67.1126 21.2 67.3926 20.376 67.3926 19.304C67.3926 18.232 67.1206 17.408 66.5766 16.832C66.0486 16.256 65.3926 15.968 64.6086 15.968C63.8086 15.968 63.1446 16.256 62.6166 16.832C62.0886 17.392 61.8246 18.216 61.8246 19.304C61.8246 20.376 62.0806 21.2 62.5926 21.776C63.1206 22.352 63.7766 22.64 64.5606 22.64ZM77.8498 14.84C78.3298 14.104 78.9298 13.528 79.6498 13.112C80.3698 12.68 81.1698 12.464 82.0498 12.464V16.808H80.9218C79.8978 16.808 79.1298 17.032 78.6178 17.48C78.1058 17.912 77.8498 18.68 77.8498 19.784V26H73.7458V12.608H77.8498V14.84ZM91.4754 22.52V26H89.3874C87.8994 26 86.7394 25.64 85.9074 24.92C85.0754 24.184 84.6594 22.992 84.6594 21.344V16.016H83.0274V12.608H84.6594V9.344H88.7634V12.608H91.4514V16.016H88.7634V21.392C88.7634 21.792 88.8594 22.08 89.0514 22.256C89.2434 22.432 89.5634 22.52 90.0114 22.52H91.4754ZM100.481 16.016H98.2734V26H94.1694V16.016H92.6814V12.608H94.1694V12.224C94.1694 10.576 94.6414 9.328 95.5854 8.48C96.5294 7.616 97.9134 7.184 99.7374 7.184C100.041 7.184 100.265 7.192 100.409 7.208V10.688C99.6254 10.64 99.0734 10.752 98.7534 11.024C98.4334 11.296 98.2734 11.784 98.2734 12.488V12.608H100.481V16.016ZM108.506 26.192C107.194 26.192 106.01 25.912 104.954 25.352C103.914 24.792 103.09 23.992 102.482 22.952C101.89 21.912 101.594 20.696 101.594 19.304C101.594 17.928 101.898 16.72 102.506 15.68C103.114 14.624 103.946 13.816 105.002 13.256C106.058 12.696 107.242 12.416 108.554 12.416C109.866 12.416 111.05 12.696 112.106 13.256C113.162 13.816 113.994 14.624 114.602 15.68C115.21 16.72 115.514 17.928 115.514 19.304C115.514 20.68 115.202 21.896 114.578 22.952C113.97 23.992 113.13 24.792 112.058 25.352C111.002 25.912 109.818 26.192 108.506 26.192ZM108.506 22.64C109.29 22.64 109.954 22.352 110.498 21.776C111.058 21.2 111.338 20.376 111.338 19.304C111.338 18.232 111.066 17.408 110.522 16.832C109.994 16.256 109.338 15.968 108.554 15.968C107.754 15.968 107.09 16.256 106.562 16.832C106.034 17.392 105.77 18.216 105.77 19.304C105.77 20.376 106.026 21.2 106.538 21.776C107.066 22.352 107.722 22.64 108.506 22.64ZM121.795 8.24V26H117.691V8.24H121.795ZM126.833 11.216C126.113 11.216 125.521 11.008 125.057 10.592C124.609 10.16 124.385 9.632 124.385 9.008C124.385 8.368 124.609 7.84 125.057 7.424C125.521 6.992 126.113 6.776 126.833 6.776C127.537 6.776 128.113 6.992 128.561 7.424C129.025 7.84 129.257 8.368 129.257 9.008C129.257 9.632 129.025 10.16 128.561 10.592C128.113 11.008 127.537 11.216 126.833 11.216ZM128.873 12.608V26H124.769V12.608H128.873ZM137.943 26.192C136.631 26.192 135.447 25.912 134.391 25.352C133.351 24.792 132.527 23.992 131.919 22.952C131.327 21.912 131.031 20.696 131.031 19.304C131.031 17.928 131.335 16.72 131.943 15.68C132.551 14.624 133.383 13.816 134.439 13.256C135.495 12.696 136.679 12.416 137.991 12.416C139.303 12.416 140.487 12.696 141.543 13.256C142.599 13.816 143.431 14.624 144.039 15.68C144.647 16.72 144.951 17.928 144.951 19.304C144.951 20.68 144.639 21.896 144.015 22.952C143.407 23.992 142.567 24.792 141.495 25.352C140.439 25.912 139.255 26.192 137.943 26.192ZM137.943 22.64C138.727 22.64 139.391 22.352 139.935 21.776C140.495 21.2 140.775 20.376 140.775 19.304C140.775 18.232 140.503 17.408 139.959 16.832C139.431 16.256 138.775 15.968 137.991 15.968C137.191 15.968 136.527 16.256 135.999 16.832C135.471 17.392 135.207 18.216 135.207 19.304C135.207 20.376 135.463 21.2 135.975 21.776C136.503 22.352 137.159 22.64 137.943 22.64Z" fill="white"/>
<path d="M22.6667 19.2898C22.6667 20.7781 22.3735 22.2519 21.804 23.6269C21.2344 25.0019 20.3996 26.2513 19.3472 27.3037C18.2948 28.3561 17.0454 29.1909 15.6704 29.7605C14.2954 30.33 12.8216 30.6231 11.3333 30.6231C9.84502 30.6231 8.37128 30.33 6.99625 29.7605C5.62123 29.1909 4.37185 28.3561 3.31946 27.3037C2.26706 26.2513 1.43225 25.0019 0.862698 23.6269C0.293145 22.2519 -1.30113e-07 20.7781 0 19.2898L11.3333 19.2898H22.6667Z" fill="url(#paint0_linear_103_1331)"/>
<path d="M33.9999 16.3334C33.9999 14.845 33.7068 13.3713 33.1372 11.9963C32.5677 10.6213 31.7329 9.37187 30.6805 8.31948C29.6281 7.26708 28.3787 6.43227 27.0037 5.86272C25.6286 5.29317 24.1549 5.00002 22.6666 5.00002C21.1783 5.00002 19.7045 5.29317 18.3295 5.86272C16.9545 6.43227 15.7051 7.26708 14.6527 8.31948C13.6003 9.37187 12.7655 10.6213 12.196 11.9963C11.6264 13.3713 11.3333 14.845 11.3333 16.3334L22.6666 16.3334H33.9999Z" fill="url(#paint1_linear_103_1331)"/>
<defs>
<linearGradient id="paint0_linear_103_1331" x1="11.3333" y1="7.95648" x2="11.3333" y2="30.6231" gradientUnits="userSpaceOnUse">
<stop stop-color="#FF8578"/>
<stop offset="1" stop-color="#FF7162"/>
</linearGradient>
<linearGradient id="paint1_linear_103_1331" x1="22.6666" y1="27.6667" x2="22.6666" y2="5.00002" gradientUnits="userSpaceOnUse">
<stop stop-color="#FBD15B"/>
<stop offset="1" stop-color="#FFCC3E"/>
</linearGradient>
</defs>
</svg>
