<svg width="124" height="124" viewBox="0 0 124 124" fill="none" xmlns="http://www.w3.org/2000/svg">
<g filter="url(#filter0_i_132_18)">
<circle cx="62" cy="62" r="60.5" stroke="url(#paint0_linear_132_18)" stroke-width="3"/>
</g>
<path fill-rule="evenodd" clip-rule="evenodd" d="M69.8165 38.1422C69.6486 38.2257 69.4185 38.4254 69.305 38.5859C69.1121 38.859 69.0969 38.9938 69.0701 40.6823C69.0455 42.2198 69.0645 42.5362 69.1977 42.8197C69.6857 43.8578 71.1582 43.8582 71.6559 42.8203C71.82 42.4781 71.8418 42.2407 71.8418 40.8021C71.8418 39.3636 71.82 39.1261 71.6559 38.7839C71.3237 38.0914 70.4978 37.8032 69.8165 38.1422ZM60.2556 38.489C58.9836 38.9098 58.1286 40.2484 58.3084 41.5375C58.4518 42.5649 58.2275 42.3197 68.4678 52.6414C79.1541 63.4126 78.3879 62.7223 79.6526 62.7185C81.1783 62.7139 82.3684 61.5303 82.3874 59.9983C82.404 58.6715 83.1307 59.4975 72.4118 48.6604C64.5571 40.7191 62.6857 38.8735 62.2881 38.6761C61.702 38.3849 60.8166 38.3034 60.2556 38.489ZM78.1997 40.9511C78.0398 41.0307 77.1961 41.823 76.3247 42.7118C74.629 44.4414 74.5311 44.5981 74.672 45.3562C74.7528 45.791 75.2731 46.3125 75.7083 46.3949C76.4065 46.5272 76.7022 46.3376 78.3266 44.7166C80.2366 42.8107 80.432 42.4496 80.0189 41.5884C79.6991 40.9215 78.8537 40.6254 78.1997 40.9511ZM57.7071 45.8243C57.7065 45.8758 57.5842 46.4502 57.4354 47.1007C56.4272 51.5068 54.3683 55.761 51.5405 59.2802L50.9861 59.9702L56.0375 65.0703L61.0889 70.1704L61.3745 69.934C65.1134 66.839 69.4835 64.5892 73.5621 63.6596C74.1758 63.5197 74.7721 63.378 74.8873 63.3445C75.0709 63.291 74.031 62.208 66.4024 54.5072C61.6206 49.68 57.7077 45.7728 57.7071 45.8243ZM78.1851 49.4064C77.7014 49.6471 77.4674 50.0552 77.4674 50.6584C77.4674 51.0421 77.5207 51.25 77.6748 51.4682C78.0517 52.0016 78.3263 52.0664 80.2119 52.0664C81.7807 52.0664 81.932 52.0513 82.2667 51.8614C82.6474 51.6454 83 51.0669 83 50.6584C83 50.2498 82.6474 49.6713 82.2667 49.4553C81.9312 49.265 81.7832 49.2505 80.1978 49.2525C78.8157 49.2542 78.432 49.2835 78.1851 49.4064ZM45.3796 65.8868C41.9873 69.3306 41.6331 69.7195 41.3991 70.2584C40.8553 71.5106 40.867 72.6913 41.4356 73.9217C41.6936 74.48 41.9944 74.8192 44.2073 77.0477C46.4239 79.2799 46.7592 79.5812 47.3404 79.8638C47.9687 80.1691 48.0302 80.1801 49.112 80.1801C50.2179 80.1801 50.2416 80.1756 50.9252 79.8322C51.5675 79.5096 51.8838 79.2154 55.2903 75.7723L58.9629 72.0601L54.0332 67.0834L49.1034 62.1068L45.3796 65.8868ZM51.7184 68.8319C52.2811 69.1015 52.6125 69.8863 52.4166 70.4855C52.2626 70.9566 49.8611 73.3307 49.4486 73.4198C48.8102 73.5577 48.1824 73.2721 47.8965 72.7139C47.7217 72.373 47.7196 71.7505 47.8919 71.4222C48.0773 71.0688 50.2649 68.8974 50.5484 68.7851C50.9011 68.6455 51.3682 68.6642 51.7184 68.8319ZM64.3203 71.1845C63.7904 71.5889 63.2941 71.9704 63.2172 72.0326C63.0987 72.1285 63.2202 72.2984 64.0223 73.1581C65.5361 74.7808 65.5276 75.0567 63.9126 76.7251C63.3454 77.3111 62.8474 77.7791 62.8062 77.7651C62.7648 77.751 62.1097 77.1409 61.3504 76.4094L59.9699 75.0793L58.0011 77.0684L56.0323 79.0575L59.2924 82.2471C63.0216 85.8958 63.1607 86 64.3035 86C64.887 86 65.0986 85.9548 65.5397 85.7361C66.8302 85.0964 67.4089 83.6031 66.8993 82.228C66.7384 81.7937 66.5158 81.4973 65.7684 80.7217L64.8378 79.7562L66.0165 78.5443C66.9484 77.5862 67.2546 77.2044 67.4784 76.7219C68.0499 75.4887 68.0505 74.2654 67.4798 73.0344C67.2685 72.5785 66.9598 72.1808 66.241 71.4383L65.2836 70.4494L64.3203 71.1845Z" fill="url(#paint1_linear_132_18)"/>
<defs>
<filter id="filter0_i_132_18" x="0" y="0" width="128" height="128" filterUnits="userSpaceOnUse" color-interpolation-filters="sRGB">
<feFlood flood-opacity="0" result="BackgroundImageFix"/>
<feBlend mode="normal" in="SourceGraphic" in2="BackgroundImageFix" result="shape"/>
<feColorMatrix in="SourceAlpha" type="matrix" values="0 0 0 0 0 0 0 0 0 0 0 0 0 0 0 0 0 0 127 0" result="hardAlpha"/>
<feOffset dx="4" dy="4"/>
<feGaussianBlur stdDeviation="4.5"/>
<feComposite in2="hardAlpha" operator="arithmetic" k2="-1" k3="1"/>
<feColorMatrix type="matrix" values="0 0 0 0 0.735625 0 0 0 0 0.769954 0 0 0 0 0.891667 0 0 0 0.37 0"/>
<feBlend mode="normal" in2="shape" result="effect1_innerShadow_132_18"/>
</filter>
<linearGradient id="paint0_linear_132_18" x1="62" y1="0" x2="62" y2="124" gradientUnits="userSpaceOnUse">
<stop stop-color="#7658F5"/>
<stop offset="1" stop-color="#583EC7"/>
</linearGradient>
<linearGradient id="paint1_linear_132_18" x1="62" y1="38" x2="62" y2="86" gradientUnits="userSpaceOnUse">
<stop stop-color="#FFB966"/>
<stop offset="1" stop-color="#FF961B"/>
</linearGradient>
</defs>
</svg>
